<svg width="27" height="27" viewBox="0 0 27 27" fill="none" xmlns="http://www.w3.org/2000/svg">
<path d="M13.4558 25.9355C20.2729 25.9355 25.7993 20.4092 25.7993 13.592C25.7993 6.77491 20.2729 1.24854 13.4558 1.24854C6.63868 1.24854 1.1123 6.77491 1.1123 13.592C1.1123 20.4092 6.63868 25.9355 13.4558 25.9355Z" stroke="#898C9B" stroke-width="2" stroke-linecap="round" stroke-linejoin="round"/>
<path d="M9.86377 9.88975C10.154 9.0648 10.7268 8.36917 11.4807 7.92607C12.2347 7.48297 13.1211 7.32099 13.983 7.46884C14.8449 7.61668 15.6267 8.0648 16.1899 8.73382C16.7531 9.40284 17.0613 10.2496 17.06 11.1241C17.06 13.5928 13.357 14.8272 13.357 14.8272" stroke="#898C9B" stroke-width="2" stroke-linecap="round" stroke-linejoin="round"/>
<path d="M13.4561 19.7638H13.4683" stroke="#898C9B" stroke-width="2" stroke-linecap="round" stroke-linejoin="round"/>
</svg>
