<svg width="471" height="91" viewBox="0 0 471 91" fill="none" xmlns="http://www.w3.org/2000/svg">
<path d="M140.011 90.8207C131.089 90.8207 123.887 88.1333 118.62 82.7585C110.45 74.3738 110.342 62.5493 110.342 61.2593V3.6416H168.39V14.3912H121.092V61.3668C121.092 61.4743 120.984 69.859 126.359 75.2338C129.477 78.4586 134.099 80.0711 140.011 80.0711C157.748 80.0711 158.823 64.2692 158.93 62.2268V42.8775H139.581V32.128H169.68V62.3343C169.465 72.2239 163.123 90.8207 140.011 90.8207Z" fill="#878787"/>
<path d="M274.703 90.8205C251.699 90.8205 245.679 67.8165 245.679 55.6694H256.429H251.054H256.429C256.429 56.6369 256.752 80.071 274.703 80.071C282.121 80.071 287.28 76.5236 290.398 69.2139C292.978 63.0866 293.085 56.6369 293.085 56.6369H303.835C303.727 68.4614 297.707 90.8205 274.703 90.8205Z" fill="#878787"/>
<path d="M292.978 38.2551C292.978 37.2876 292.655 14.606 274.703 14.606C256.644 14.606 256.429 36.4277 256.429 37.2876H245.679C245.679 25.6781 251.699 3.85645 274.703 3.85645C297.707 3.85645 303.727 26.3231 303.727 38.2551H292.978H298.352H292.978Z" fill="#878787"/>
<path fill-rule="evenodd" clip-rule="evenodd" d="M177.957 3.6416H235.36V14.3912H212.033V90.7131H201.284V14.3912H177.957V3.6416Z" fill="#878787"/>
<path d="M321.249 4.28655H316.412V17.5085H315.122V4.28655H310.284V3.31909H321.249V4.28655Z" fill="#878787"/>
<path d="M325.119 3.31909L330.386 15.8961L335.653 3.31909H337.266V17.616H336.083V11.3813L336.191 5.03902L330.924 17.616H329.956L324.689 5.03902L324.796 11.2738V17.5085H323.614V3.31909H325.119Z" fill="#878787"/>
<path d="M44.2324 90.4981C43.9099 90.4981 42.8349 90.4981 41.7599 90.3906C42.6199 90.3906 43.1574 90.4981 44.5548 90.4981C44.4473 90.4981 44.3398 90.4981 44.2324 90.4981Z" fill="#AEC736"/>
<path d="M34.2353 89.2083C33.6978 89.1008 33.1604 88.8858 32.5154 88.7783C32.1929 88.6708 31.8704 88.5633 31.5479 88.4558H31.4404C33.4828 88.9933 34.1278 89.2083 35.9552 89.6383C35.8478 89.6383 35.8478 89.6383 35.7403 89.6383C35.3103 89.4233 34.7728 89.3158 34.2353 89.2083Z" fill="#AEC736"/>
<path d="M41.7601 90.3905C40.5776 90.283 39.8251 90.1755 39.8251 90.1755C41.3301 90.283 42.7275 90.3905 44.2325 90.498C44.125 90.498 44.0175 90.498 43.91 90.498C43.695 90.498 42.835 90.498 41.7601 90.3905Z" fill="#AEC736"/>
<path d="M37.7827 89.9607C36.6003 89.7457 35.8478 89.6383 35.6328 89.5308C36.3853 89.5308 37.0303 89.7457 37.7827 89.9607C38.7502 90.0682 39.2877 90.1757 40.1476 90.2832C40.0401 90.2832 40.0401 90.2832 39.8251 90.2832C39.5027 90.1757 38.7502 90.0682 37.7827 89.9607Z" fill="#AEC736"/>
<path d="M24.4532 85.5534C23.9157 85.3384 23.4857 85.0159 22.9483 84.6934C22.7333 84.5859 22.5183 84.4784 22.3033 84.2634C23.3782 84.9084 24.3457 85.4459 25.4207 85.9834C25.0982 85.8759 24.7757 85.6609 24.4532 85.5534Z" fill="#AEC736"/>
<path d="M31.7629 88.4558C31.1179 88.2408 30.2579 87.9183 29.9354 87.8108C30.0429 87.8108 34.0203 89.1007 34.0203 89.1007C34.0203 89.1007 34.0203 89.1007 33.5903 88.9933C33.1603 88.8858 32.5153 88.6708 31.7629 88.4558Z" fill="#AEC736"/>
<path d="M27.5705 86.9509C26.7106 86.5209 25.7431 86.0909 25.6356 85.9834C25.7431 85.9834 29.7205 87.7033 29.828 87.7033C29.828 87.7033 29.7205 87.7033 29.613 87.5958C29.2905 87.5958 28.538 87.3808 27.5705 86.9509Z" fill="#AEC736"/>
<path d="M44.2325 90.4981C43.05 90.4981 42.405 90.3906 42.405 90.3906C44.5549 90.4981 44.5549 90.4981 44.6624 90.4981C44.5549 90.4981 44.34 90.4981 44.2325 90.4981Z" fill="#AEC736"/>
<path d="M40.255 90.1758C39.5026 90.0683 38.8576 89.9608 38.5351 89.8533C38.6426 89.8533 38.6426 89.8533 39.1801 89.9608C40.3625 90.1758 41.115 90.2833 42.1899 90.3908C42.1899 90.3908 42.19 90.3908 41.975 90.3908C41.76 90.3908 41.115 90.2833 40.255 90.1758Z" fill="#AEC736"/>
<path d="M35.9553 89.5306C35.2029 89.3156 34.5579 89.2081 34.3429 89.1006C34.4504 89.1006 38.2127 89.9605 38.3202 89.9605C38.3202 89.9605 38.2127 89.9605 37.6753 89.8531C36.7078 89.6381 36.4928 89.6381 35.9553 89.5306Z" fill="#AEC736"/>
<path d="M22.1958 84.0483C21.8733 83.8334 20.9058 83.2959 20.6909 82.9734C21.2283 83.0809 24.2382 85.0158 24.3457 85.2308C24.2382 85.2308 24.0232 85.1233 24.0232 85.1233C23.7007 84.9083 23.0558 84.5858 22.1958 84.0483Z" fill="#AEC736"/>
<path d="M18.326 81.6834C17.681 81.1459 16.9285 80.6085 16.821 80.501C16.9285 80.501 20.2609 83.0809 20.3684 83.0809C20.3684 83.0809 20.2609 83.0809 19.8309 82.7584C19.0785 82.2209 18.8635 82.1134 18.326 81.6834Z" fill="#AEC736"/>
<path d="M42.6199 90.3905C42.5124 90.3905 41.9749 90.283 41.7599 90.1755C41.8674 90.1755 41.8674 90.1755 42.2974 90.283C43.2649 90.3905 44.0174 90.498 44.8773 90.498C44.7698 90.498 44.4473 90.498 44.1249 90.498C43.4799 90.3905 42.9424 90.3905 42.6199 90.3905Z" fill="#AEC736"/>
<path d="M39.0727 89.8532C38.7502 89.7457 38.1052 89.6383 38.1052 89.5308C38.3202 89.5308 41.0076 90.1757 41.1151 90.1757C41.1151 90.1757 41.0076 90.1757 40.6851 90.1757C40.3626 90.0682 39.7177 89.9607 39.0727 89.8532Z" fill="#AEC736"/>
<path d="M35.0953 88.8856C35.0953 88.8856 34.1278 88.5631 34.1278 88.4556C34.4503 88.3481 37.3527 89.5306 37.4602 89.5306C37.4602 89.5306 37.4602 89.5306 36.9227 89.4231C36.6002 89.3156 35.8477 89.2081 35.0953 88.8856Z" fill="#AEC736"/>
<path d="M30.903 87.7032C30.1505 87.3807 29.7205 87.1657 29.613 86.9507C29.828 86.8432 33.0529 88.2407 33.1604 88.3482C33.1604 88.3482 32.8379 88.2407 32.6229 88.2407C32.3004 88.2407 31.763 88.0257 30.903 87.7032Z" fill="#AEC736"/>
<path d="M26.4956 86.0908C26.0656 85.8758 25.0982 85.3383 24.9907 85.1233C25.3131 85.1233 28.4305 86.7357 28.6455 86.9507C28.6455 86.9507 28.538 86.9507 28.323 86.8432C28.323 86.8432 28.323 86.8432 28.2155 86.8432C28.0005 86.7357 27.3556 86.5207 26.4956 86.0908Z" fill="#AEC736"/>
<path d="M12.0912 76.0937C11.6612 75.6637 11.3387 75.2337 10.9087 74.8037C10.4788 74.3738 10.1563 73.9438 9.83379 73.5138C9.7263 73.2988 9.5113 73.1913 9.40381 72.9763L12.0912 76.0937C12.1987 76.2012 12.1987 76.2012 12.0912 76.0937Z" fill="#AEC736"/>
<path d="M13.7036 77.5987C13.4886 77.3837 12.6287 76.5238 12.5212 76.2013C12.8437 76.0938 15.5311 78.8887 15.5311 79.1036C15.5311 79.1036 15.4236 79.1036 15.1011 78.8887C14.6711 78.4587 14.1336 78.0287 13.7036 77.5987Z" fill="#AEC736"/>
<path d="M44.7699 90.4981C44.4474 90.4981 44.1249 90.3906 44.1249 90.3906C44.1249 90.3906 44.2324 90.3906 44.4474 90.3906C44.7699 90.3906 44.8774 90.4981 45.0924 90.4981C44.8774 90.4981 44.7699 90.4981 44.7699 90.4981Z" fill="#AEC736"/>
<path d="M17.5736 80.3935C16.6061 79.5335 16.3911 79.1035 16.4986 79.1035C16.8211 79.1035 19.7235 81.2534 19.616 81.6834C19.616 81.6834 19.5085 81.6834 19.2935 81.5759C19.2935 81.5759 19.2935 81.5759 19.186 81.5759C18.8635 81.3609 18.326 81.0384 17.5736 80.3935Z" fill="#AEC736"/>
<path d="M42.4051 90.1757C41.9751 90.0682 41.8676 89.9607 41.8676 89.9607C41.9751 89.8533 43.5875 90.3907 43.5875 90.3907C43.5875 90.3907 43.5875 90.3907 43.4801 90.3907C43.4801 90.3907 43.4801 90.3907 43.3726 90.3907C43.2651 90.2832 42.8351 90.2832 42.4051 90.1757Z" fill="#AEC736"/>
<path d="M39.5027 89.4231C39.0727 89.3156 38.7502 89.1006 38.7502 88.9931C38.9652 88.8856 40.6851 89.6381 41.0076 89.8531C40.9001 89.8531 40.9001 89.8531 40.5776 89.7456C40.3626 89.7456 39.8251 89.6381 39.5027 89.4231Z" fill="#AEC736"/>
<path d="M35.6327 88.3481C34.8803 88.0257 34.7728 87.8107 34.7728 87.8107C35.0953 87.5957 37.2452 88.6706 37.3527 88.9931C37.2452 88.9931 37.2452 88.9931 36.9227 88.8856C36.7077 88.7781 36.1702 88.6706 35.6327 88.3481Z" fill="#AEC736"/>
<path d="M31.3329 86.8432C30.903 86.6282 30.3655 86.1983 30.3655 86.0908C30.688 85.8758 33.0529 87.0582 33.2679 87.5957C33.1604 87.5957 33.0529 87.5957 32.6229 87.4882C32.4079 87.3807 31.7629 87.1657 31.3329 86.8432Z" fill="#AEC736"/>
<path d="M26.7106 85.0159C26.2806 84.8009 25.6357 84.2634 25.7432 84.0485C26.0656 83.8335 28.5381 85.3384 28.8605 85.8759C28.753 85.8759 28.6455 85.8759 28.2156 85.7684C27.8931 85.6609 27.1406 85.3384 26.7106 85.0159Z" fill="#AEC736"/>
<path d="M22.0883 82.9734C21.9808 82.8659 20.7983 82.0059 21.0133 81.7909C21.4433 81.6834 24.0232 83.5109 24.2382 84.0483C24.1307 84.0483 24.1307 84.0483 23.9157 83.9408C23.9157 83.9408 23.9157 83.9408 23.3782 83.7259C22.8407 83.4034 22.4108 83.1884 22.0883 82.9734Z" fill="#AEC736"/>
<path d="M4.24408 64.4841C4.78156 65.5591 5.31904 66.634 5.42653 66.849C5.31904 66.634 5.21154 66.4191 5.10405 66.2041C4.88905 65.7741 4.56657 65.1291 4.35158 64.6991C4.35158 64.5916 4.35158 64.5916 4.24408 64.4841Z" fill="#AEC736"/>
<path d="M6.93138 69.3215C6.60889 68.784 6.07141 67.8166 6.07141 67.6016C6.2864 67.6016 8.32882 70.8264 8.32882 71.1489C8.32882 71.1489 8.32882 71.1489 8.11383 71.0414C8.11383 71.0414 8.11383 71.0414 8.00633 70.9339C7.89884 70.6114 7.57635 70.289 6.93138 69.3215Z" fill="#AEC736"/>
<path d="M44.7699 90.2831C44.6624 90.1756 44.7699 90.0681 44.8774 90.0681C45.0924 90.0681 45.1999 90.2831 45.0924 90.3906C45.0924 90.3906 45.0924 90.3906 44.9849 90.3906C44.9849 90.3906 44.8774 90.3906 44.7699 90.2831Z" fill="#AEC736"/>
<path d="M9.94125 72.5463C9.83376 72.4388 9.18878 71.4713 9.29628 71.1488C9.83376 70.9338 11.7687 73.8362 11.7687 74.2662C11.6612 74.2662 11.6612 74.2662 11.4462 74.1587C11.4462 74.1587 11.4462 74.1587 11.3387 74.0512C11.1237 73.9437 10.5862 73.5137 9.94125 72.5463Z" fill="#AEC736"/>
<path d="M43.2649 89.8532C43.1574 89.7457 43.0499 89.5308 43.2649 89.5308C43.5874 89.5308 44.2324 89.8532 44.1249 90.1757C44.0174 90.1757 44.0174 90.1757 43.9099 90.1757C43.9099 90.1757 43.9099 90.1757 43.8024 90.1757C43.6949 90.0682 43.4799 89.9607 43.2649 89.8532Z" fill="#AEC736"/>
<path d="M40.6851 88.8856C40.4701 88.7781 40.2551 88.3481 40.5776 88.3481C41.2226 88.3481 42.19 89.1006 41.975 89.3156C41.8675 89.4231 41.6526 89.3156 41.5451 89.3156C41.3301 89.2081 40.9001 89.1006 40.6851 88.8856Z" fill="#AEC736"/>
<path d="M18.541 78.7811C18.2185 78.4586 17.5735 77.5986 18.0035 77.5986C18.2185 77.5986 19.0784 78.0286 19.7234 78.6736C20.3684 79.3186 20.6909 79.9635 20.5834 80.071C20.4759 80.1785 20.1534 79.9635 19.9384 79.8561C19.7234 79.8561 19.0784 79.4261 18.541 78.7811Z" fill="#AEC736"/>
<path d="M13.9186 75.8787C13.7036 75.5562 13.1661 74.9113 13.1661 74.5888C13.4886 74.2663 15.531 76.0937 15.8535 77.3837C15.746 77.4912 15.6385 77.4912 15.4235 77.2762C15.4235 77.2762 15.4235 77.2762 15.3161 77.1687C15.1011 77.0612 14.5636 76.6312 13.9186 75.8787Z" fill="#AEC736"/>
<path d="M37.2452 87.5957C36.7077 87.1657 36.8152 86.9507 37.0302 86.9507C37.6752 86.9507 38.9651 87.9181 38.7501 88.2406C38.6426 88.3481 38.4277 88.2406 38.3202 88.2406C38.1052 88.1331 37.6752 87.9181 37.2452 87.5957Z" fill="#AEC736"/>
<path d="M32.9453 85.8758C32.5154 85.4458 32.3004 85.1233 32.6229 85.1233C33.2678 85.0158 34.9878 86.4133 34.7728 86.7357C34.7728 86.8432 34.5578 86.8432 34.0203 86.6283C33.9128 86.5208 33.4828 86.3058 32.9453 85.8758Z" fill="#AEC736"/>
<path d="M28.3231 83.8334C27.7857 83.296 27.5707 82.866 28.0007 82.866C28.8606 82.866 30.688 84.4784 30.3656 84.8009C30.3656 84.8009 30.1506 84.9084 29.6131 84.5859C29.2906 84.5859 28.8606 84.3709 28.3231 83.8334Z" fill="#AEC736"/>
<path d="M23.3783 81.5759C22.6259 80.8235 22.7334 80.501 22.9483 80.501C23.1633 80.501 23.7008 80.716 24.4533 81.2534C25.0983 81.7909 25.5282 82.4359 25.4207 82.6509C25.3133 82.7584 24.9908 82.6509 24.8833 82.5434C24.6683 82.4359 24.0233 82.1134 23.3783 81.5759Z" fill="#AEC736"/>
<path d="M45.6298 90.4981C45.8448 90.4981 46.0598 90.4981 46.1673 90.3906C46.3823 90.3906 46.4898 90.3906 46.4898 90.3906C46.4898 90.3906 46.1673 90.4981 45.4149 90.4981C45.4149 90.4981 45.5224 90.4981 45.6298 90.4981Z" fill="#AEC736"/>
<path d="M2.41657 59.6468C2.20158 59.0018 1.98659 58.1418 1.87909 57.8193C2.20158 58.2493 3.06154 61.0442 3.16904 61.6892C3.16904 61.6892 3.16904 61.6892 3.06154 61.4742C2.95405 61.3667 2.73906 60.8292 2.41657 59.6468Z" fill="#AEC736"/>
<path d="M4.45901 63.7317C4.24402 63.0867 3.70654 61.7968 4.13652 61.9043C4.45901 62.1193 5.74896 64.2692 5.74896 65.4516C5.53397 65.5591 5.53397 65.5591 5.21148 65.1291C5.10398 64.9142 4.674 64.2692 4.45901 63.7317Z" fill="#AEC736"/>
<path d="M46.0598 90.0681C46.4898 89.7456 46.8123 89.7456 46.8123 89.8531C46.8123 90.0681 45.9523 90.2831 45.8448 90.2831C45.9523 90.2831 45.9523 90.1756 46.0598 90.0681Z" fill="#AEC736"/>
<path d="M45.2 89.3156C45.3074 88.8856 45.8449 88.7781 46.0599 89.1006C46.2749 89.4231 45.8449 89.8531 45.5224 89.7456C45.4149 89.7456 45.4149 89.7456 45.4149 89.7456C45.3074 89.6381 45.2 89.5306 45.2 89.3156Z" fill="#AEC736"/>
<path d="M7.46886 67.279C7.25387 66.7416 6.82388 65.6666 7.25387 65.7741C8.11383 66.0966 9.51128 68.784 8.9738 69.1065C8.8663 69.214 8.65131 68.999 8.43632 68.8915C8.43632 68.6765 7.89884 68.139 7.46886 67.279Z" fill="#AEC736"/>
<path d="M11.5537 70.8264C11.0162 69.9664 11.0162 69.3215 11.4462 69.429C12.6286 69.7514 13.9186 72.3313 13.3811 72.4388C13.1661 72.5463 12.8436 72.3313 12.6286 72.1164C12.5211 72.0089 11.9836 71.5789 11.5537 70.8264Z" fill="#AEC736"/>
<path d="M43.1575 88.2407C43.05 87.9182 43.265 87.3807 43.91 87.7032C44.0175 87.8107 44.34 87.9182 44.34 88.2407C44.34 88.3482 44.34 88.4557 44.2325 88.5632C44.2325 88.6707 44.125 88.6707 44.0175 88.6707C43.91 88.6707 43.8025 88.6707 43.695 88.6707C43.695 88.6707 43.695 88.6707 43.5875 88.6707C43.48 88.5632 43.265 88.4557 43.1575 88.2407Z" fill="#AEC736"/>
<path d="M40.1476 86.7359C39.9326 86.3059 40.1476 85.9834 40.6851 86.0909C41.4376 86.3059 41.9751 87.1659 41.5451 87.4884C41.3301 87.7033 40.9001 87.4884 40.7926 87.3809C40.3626 87.0584 40.1476 86.8434 40.1476 86.7359Z" fill="#AEC736"/>
<path d="M16.2836 74.1588C15.8536 73.5139 15.7461 72.8689 16.2836 72.8689C17.2511 72.9764 18.8635 75.0188 18.326 75.5563C18.111 75.7713 17.5735 75.3413 17.466 75.3413C16.8211 75.0188 16.3911 74.3738 16.2836 74.1588Z" fill="#AEC736"/>
<path d="M36.2778 84.9083C35.9553 84.4783 36.0628 83.9408 36.6003 84.0483C37.3527 84.1558 38.3202 85.2308 37.8902 85.6608C37.7827 85.7683 37.4602 85.7683 37.0302 85.5533C36.8153 85.4458 36.4928 85.3383 36.2778 84.9083Z" fill="#AEC736"/>
<path d="M31.4404 82.5434C31.2254 82.1134 31.1179 81.6834 31.8704 81.7909C32.4079 81.8984 33.5903 82.6508 33.4828 83.5108C33.2678 83.6183 33.1603 83.7258 32.6229 83.5108C31.8704 83.0808 31.6554 82.7583 31.4404 82.5434Z" fill="#AEC736"/>
<path d="M26.4956 79.9635C26.1732 79.5335 26.1732 78.996 26.8181 79.1035C27.3556 79.211 28.6456 80.071 28.6456 81.0384C28.4306 81.2534 28.3231 81.3609 27.7856 81.0384C26.9256 80.7159 26.6031 80.1785 26.4956 79.9635Z" fill="#AEC736"/>
<path d="M21.4433 77.3837C21.0133 76.7387 20.9058 76.0938 21.4433 76.2013C22.3033 76.3088 23.7007 77.5987 23.4857 78.5662C23.1633 78.6737 23.1633 78.7812 22.8408 78.5662C22.8408 78.5662 22.8408 78.5662 22.7333 78.4587C21.9808 78.0287 21.7658 77.8137 21.4433 77.3837Z" fill="#AEC736"/>
<path d="M47.3499 90.2831C47.4574 90.2831 47.5648 90.2831 48.1023 90.1756C48.4248 90.0681 48.5323 90.0681 48.5323 90.0681C48.4248 90.1756 46.9199 90.3906 46.2749 90.3906C46.2749 90.3906 46.2749 90.3906 46.3824 90.3906C46.4899 90.3906 46.8124 90.3906 47.3499 90.2831Z" fill="#AEC736"/>
<path d="M0.481667 50.9397C0.374171 50.2947 0.374171 49.7572 0.266675 49.1123C0.266675 48.5748 0.15918 47.9298 0.15918 47.3923C0.266675 48.4673 0.481667 50.6172 0.481667 51.5847C0.481667 51.3697 0.481667 51.1547 0.481667 50.9397Z" fill="#AEC736"/>
<path d="M1.12669 53.6271C1.01919 52.8746 0.911697 51.4772 1.12669 51.6921C1.34168 51.7996 2.09415 54.0571 1.87916 55.562C1.77166 55.6695 1.77166 55.6695 1.55667 55.2395C1.44918 54.917 1.23418 54.272 1.12669 53.6271Z" fill="#AEC736"/>
<path d="M48.3173 89.7456C49.6073 89.2081 49.4998 89.4231 49.4998 89.4231C49.3923 89.6381 47.8873 90.0681 47.7798 90.0681C47.8873 89.9606 47.9948 89.9606 48.3173 89.7456Z" fill="#AEC736"/>
<path d="M3.16896 57.4968C3.06147 57.0668 2.84648 55.6694 3.27646 55.8844C4.02893 56.2069 4.88889 59.2168 4.24392 59.5392C4.13642 59.6467 3.92143 59.4318 3.81394 59.2168C3.70644 59.0018 3.38395 58.4643 3.16896 57.4968Z" fill="#AEC736"/>
<path d="M48.2098 88.7781C48.7473 88.2406 49.3922 88.1331 49.4997 88.4556C49.4997 88.7781 48.3173 89.423 48.1023 89.3155C47.9948 89.208 47.9948 89.1005 48.2098 88.7781Z" fill="#AEC736"/>
<path d="M46.9198 87.4882C47.1348 86.8432 47.9948 86.6282 48.2098 87.1657C48.4248 87.5957 47.6723 88.3482 47.1348 88.1332C47.1348 88.1332 47.0273 88.1332 47.0273 88.0257C46.8123 87.8107 46.9198 87.5957 46.9198 87.4882Z" fill="#AEC736"/>
<path d="M6.39399 61.4743C6.0715 60.3994 6.179 59.6469 6.82397 59.9694C7.79144 60.5068 8.43641 63.0867 7.79144 63.3017C7.68394 63.3017 7.57644 63.3017 7.36145 63.0867C7.14646 62.9792 6.60898 62.4418 6.39399 61.4743Z" fill="#AEC736"/>
<path d="M10.5863 65.4516C10.2638 64.4841 10.3713 63.6242 11.0162 63.9467C12.0912 64.4841 12.9512 66.849 12.0912 66.9565C11.8762 66.9565 11.4462 66.7416 11.3387 66.6341C11.2312 66.5266 10.8012 66.2041 10.5863 65.4516Z" fill="#AEC736"/>
<path d="M44.3399 85.7683C44.3399 85.0159 45.3074 84.8009 45.7374 85.3384C45.8448 85.4459 46.0598 85.7683 45.8448 86.0908C45.8448 86.0908 45.5224 86.5208 45.0924 86.5208C44.9849 86.5208 44.9849 86.5208 44.8774 86.5208C44.8774 86.5208 44.8774 86.5208 44.7699 86.5208C44.5549 86.3058 44.3399 86.1983 44.3399 85.7683Z" fill="#AEC736"/>
<path d="M40.7926 83.7258C40.6851 83.0808 41.3301 82.6508 42.0825 83.1883C42.2975 83.2958 42.9425 83.8332 42.405 84.4782C42.405 84.5857 41.975 84.8007 41.4376 84.4782C41.3301 84.4782 40.9001 84.1557 40.7926 83.7258Z" fill="#AEC736"/>
<path d="M36.3852 81.146C36.2777 80.286 37.3527 80.3935 37.9977 80.931C38.5351 81.361 38.7501 82.3284 37.8902 82.4359C37.6752 82.4359 37.2452 82.3284 37.2452 82.3284C36.3852 81.791 36.3852 81.146 36.3852 81.146Z" fill="#AEC736"/>
<path d="M20.4758 72.1163C20.2608 71.1488 20.9058 71.0413 21.6583 71.4713C21.9808 71.6863 22.5182 72.1163 22.7332 72.8688C22.8407 73.1913 22.8407 73.7287 22.3032 73.8362C22.0883 73.8362 21.6583 73.6212 21.6583 73.6212C20.7983 73.0838 20.4758 72.1163 20.4758 72.1163Z" fill="#AEC736"/>
<path d="M15.3161 68.999C15.1011 68.4615 14.9936 67.494 15.8536 67.8165C16.391 68.0315 17.5735 68.999 17.3585 70.1814C17.3585 70.1814 17.3585 70.1814 17.3585 70.2889C17.3585 70.3964 17.1435 70.5039 17.036 70.6114C16.9285 70.6114 16.7135 70.6114 16.391 70.3964C16.2836 70.1814 15.6386 69.7515 15.3161 68.999Z" fill="#AEC736"/>
<path d="M31.4405 78.6735C31.2255 78.0285 31.4405 77.3836 32.408 77.8135C32.9454 78.0285 33.3754 78.566 33.4829 78.8885C33.8054 79.641 33.3754 79.856 33.1604 79.856C32.8379 79.9635 32.5155 79.856 32.408 79.7485C32.0855 79.5335 31.6555 79.211 31.4405 78.6735Z" fill="#AEC736"/>
<path d="M26.0657 75.6638C25.7432 75.0188 25.9582 74.2663 26.9257 74.6963C28.0006 75.2338 28.7531 76.6312 27.7856 76.9537C27.4631 77.0612 27.0331 76.8462 27.0331 76.8462C26.8182 76.6312 26.3882 76.3087 26.0657 75.6638Z" fill="#AEC736"/>
<path d="M47.1349 90.3907C47.6724 90.3907 48.1023 90.2832 48.6398 90.2832C48.6398 90.2832 47.8874 90.3907 45.6299 90.4982C46.2749 90.4982 46.5974 90.4982 47.1349 90.3907Z" fill="#AEC736"/>
<path d="M49.8223 90.0681C51.2197 89.7456 51.2197 89.7456 51.3272 89.7456C51.0047 89.9606 48.8548 90.2831 48.3173 90.2831C48.3173 90.2831 48.3173 90.2831 48.5323 90.2831C48.7473 90.2831 49.0698 90.1756 49.8223 90.0681Z" fill="#AEC736"/>
<path d="M0.696668 38.3627C0.696668 38.3627 0.696668 38.2552 0.696668 38.3627C0.696668 38.6852 0.589172 39.0077 0.589172 39.3302C0.589172 39.0077 0.589172 38.6852 0.696668 38.3627Z" fill="#AEC736"/>
<path d="M51.3271 89.3157C52.7245 88.7782 52.832 88.8857 52.832 88.8857C52.9395 89.1007 50.6821 89.8532 50.3596 89.7457C50.6821 89.5307 51.0046 89.4232 51.3271 89.3157Z" fill="#AEC736"/>
<path d="M0.266663 43.0925C0.266663 42.34 0.481654 41.05 0.58915 41.05C0.696646 41.1575 0.696646 42.125 0.696646 42.6625C0.58915 44.8124 0.374158 45.1349 0.374158 45.1349C0.374158 45.1349 0.266663 45.1349 0.266663 44.4899C0.266663 43.2 0.266663 43.2 0.266663 43.0925Z" fill="#AEC736"/>
<path d="M51.9721 88.1333C52.7246 87.5958 53.477 87.3808 53.477 87.7033C53.477 87.8108 53.2621 88.1333 52.7246 88.3482C52.4021 88.5632 51.5421 88.8857 51.4346 88.7782C51.4346 88.7782 51.4346 88.7782 51.4346 88.6707C51.4346 88.5632 51.5421 88.4557 51.9721 88.1333Z" fill="#AEC736"/>
<path d="M1.12671 47.2848C1.12671 46.9623 1.12671 45.6723 1.4492 45.3499C2.09417 45.3499 2.20167 48.6822 1.77168 49.2197C1.55669 49.4347 1.3417 49.0047 1.3417 48.8972C1.2342 48.6822 1.12671 48.2522 1.12671 47.2848Z" fill="#AEC736"/>
<path d="M51.4347 86.6281C51.9721 85.9831 52.9396 85.6606 52.9396 86.1981C52.9396 86.3056 52.9396 86.6281 52.1871 87.0581C51.7572 87.3806 51.3272 87.4881 51.1122 87.2731C51.1122 87.0581 51.3272 86.7356 51.4347 86.6281Z" fill="#AEC736"/>
<path d="M3.16909 51.4773C3.06159 50.5098 3.27658 49.2198 3.81406 49.6498C4.67403 50.2948 4.88902 53.1972 4.13655 53.1972C4.02905 53.1972 3.92156 53.0897 3.92156 53.0897C3.92156 53.0897 3.92156 52.9822 3.81406 52.9822C3.38408 52.5522 3.27658 52.1222 3.16909 51.4773Z" fill="#AEC736"/>
<path d="M49.7147 84.5858C50.1447 83.8333 51.2197 83.7258 51.3272 84.3708C51.4347 85.0157 50.3597 85.8757 49.8222 85.5532C49.6072 85.3382 49.6072 85.2307 49.6072 85.2307C49.6072 84.9083 49.7147 84.5858 49.7147 84.5858Z" fill="#AEC736"/>
<path d="M6.39393 55.4544C6.28644 54.5944 6.50143 53.412 7.2539 54.057C7.57639 54.272 8.54385 55.3469 8.11387 56.7444C8.11387 56.7444 8.00637 56.7444 8.00637 56.9593C8.00637 57.0668 7.68388 57.1743 7.68388 57.1743C7.68388 57.1743 7.46889 57.2818 7.2539 57.0668L7.1464 56.9593C6.93141 56.6369 6.60893 56.3144 6.39393 55.4544Z" fill="#AEC736"/>
<path d="M46.8123 82.2208C47.2423 81.2534 48.4247 81.4684 48.6397 82.1134C48.8547 82.8658 47.8873 83.6183 47.3498 83.2958C47.2423 83.2958 47.2423 83.2958 47.1348 83.1883C46.4898 82.8658 46.8123 82.2208 46.8123 82.2208Z" fill="#AEC736"/>
<path d="M10.6938 59.4318C10.5863 58.6793 10.8012 57.4969 11.6612 58.0344C12.9512 58.8943 12.8437 60.8293 12.1987 61.0442C11.9837 61.1517 11.5537 60.8293 11.4462 60.7218C11.4462 60.8293 10.8013 60.1843 10.6938 59.4318Z" fill="#AEC736"/>
<path d="M15.6385 63.4091C15.4235 62.5491 15.8535 61.5817 16.7135 62.1191C17.8959 62.8716 17.8959 64.699 17.251 64.8065C17.1435 64.8065 16.821 64.914 16.4985 64.5916C15.8535 64.0541 15.746 63.6241 15.6385 63.4091Z" fill="#AEC736"/>
<path d="M42.62 79.9635C42.62 78.9961 43.695 78.7811 44.3399 79.426C45.0924 80.1785 44.2324 81.0385 43.5875 80.931C43.3725 80.931 43.1575 80.8235 43.05 80.716C43.05 80.716 42.62 80.501 42.62 79.9635Z" fill="#AEC736"/>
<path d="M37.8902 77.1686C37.7827 76.4162 38.5352 75.6637 39.5026 76.4162C39.7176 76.6312 40.0401 77.0611 39.9326 77.5986C39.9326 77.5986 39.7176 78.1361 39.2876 78.2436C38.9651 78.3511 38.6427 78.1361 38.4277 78.0286C38.3202 77.9211 37.9977 77.7061 37.8902 77.1686Z" fill="#AEC736"/>
<path d="M32.5153 74.0512C32.3003 73.1913 33.0528 72.5463 33.9128 73.0838C34.3427 73.4062 34.6652 73.8362 34.6652 74.1587C34.6652 74.9112 34.1278 75.0187 34.0203 75.1262C33.6978 75.1262 33.2678 74.9112 33.1603 74.9112C32.9453 74.8037 32.6228 74.5887 32.5153 74.0512Z" fill="#AEC736"/>
<path d="M26.8182 70.7188C26.6032 70.0739 27.0331 69.1064 28.1081 69.6439C29.0756 70.1813 29.2906 71.4713 28.5381 71.7938C28.2156 71.9013 27.6781 71.6863 27.5706 71.5788C27.3556 71.5788 27.0331 71.2563 26.8182 70.7188Z" fill="#AEC736"/>
<path d="M21.2284 67.1716C21.0134 66.4191 21.4434 65.4517 22.4108 66.0966C22.9483 66.4191 23.2708 67.1716 23.2708 67.4941C23.3783 67.8166 23.1633 68.354 22.8408 68.4615C22.6258 68.569 22.1959 68.354 21.8734 68.2465C21.7659 68.139 21.3359 67.8166 21.2284 67.1716Z" fill="#AEC736"/>
<path d="M49.1773 90.2831C49.9298 90.1756 50.5747 90.0681 51.3272 90.0681C51.1122 90.0681 49.4998 90.3906 47.2424 90.4981C47.3499 90.4981 47.3499 90.4981 47.4574 90.4981C47.6724 90.3906 48.3173 90.3906 49.1773 90.2831Z" fill="#AEC736"/>
<path d="M52.5096 89.6382C54.2296 89.2083 54.2296 89.2083 54.337 89.2083C53.5846 89.5307 51.1122 89.9607 50.6822 89.9607C50.6822 89.9607 50.6822 89.9607 50.8972 89.8532C51.3272 89.9607 51.8646 89.8532 52.5096 89.6382Z" fill="#AEC736"/>
<path d="M54.6595 88.7783C55.842 88.3483 56.3795 88.1333 56.4869 88.2408C56.1645 88.5633 53.7996 89.3157 53.3696 89.3157C53.3696 89.3157 53.3696 89.3157 53.4771 89.2082C53.6921 89.1007 53.907 88.9932 54.6595 88.7783Z" fill="#AEC736"/>
<path d="M1.98658 32.558C2.30906 31.8055 2.52405 30.838 2.63155 30.623C2.73905 30.838 1.66409 34.2779 1.4491 34.6004C1.4491 34.6004 1.4491 34.6004 1.4491 34.3854C1.66409 33.8479 1.77158 33.3104 1.98658 32.558Z" fill="#AEC736"/>
<path d="M56.1645 87.3806C56.487 87.1656 57.562 86.5207 57.8845 86.7357C57.992 87.1656 55.5196 88.2406 55.3046 88.1331C55.3046 87.9181 55.4121 87.7031 56.1645 87.3806Z" fill="#AEC736"/>
<path d="M1.55658 36.5351C1.77158 35.4602 2.20156 34.4927 2.41655 34.8152C2.73904 35.4602 1.98657 38.7925 1.55658 38.5776C1.55658 38.5776 1.55658 38.4701 1.44909 38.4701C1.44909 38.4701 1.44909 38.4701 1.44909 38.3626C1.34159 38.0401 1.34159 37.6101 1.55658 36.5351Z" fill="#AEC736"/>
<path d="M2.41662 40.62C2.52412 39.5451 2.9541 38.5776 3.38408 39.0076C3.59908 39.2226 3.81407 39.8676 3.70657 40.9425C3.70657 41.265 3.38408 42.6624 2.9541 42.6624C2.8466 42.6624 2.73911 42.5549 2.63161 42.2325C2.41662 42.0175 2.30913 41.5875 2.41662 40.62Z" fill="#AEC736"/>
<path d="M56.272 85.6609C56.8095 85.1234 58.2069 84.371 58.0994 85.0159C58.0994 85.3384 57.2394 85.8759 57.2394 85.9834C56.1645 86.6284 55.9495 86.5209 55.9495 86.5209C55.9495 86.5209 55.9495 86.5209 55.9495 86.4134C55.842 86.1984 55.9495 85.9834 56.272 85.6609Z" fill="#AEC736"/>
<path d="M4.45905 44.9199C4.45905 43.8449 4.99652 42.77 5.6415 43.4149C6.39397 44.2749 6.17898 46.7473 5.21152 46.7473C5.10402 46.7473 5.10402 46.7473 4.88903 46.5323L4.78153 46.4248C4.56654 45.9948 4.45905 45.4573 4.45905 44.9199Z" fill="#AEC736"/>
<path d="M55.5195 83.511C56.1645 82.6511 57.1319 82.3286 57.3469 82.9736C57.4544 83.296 57.1319 83.6185 56.8094 83.941C56.057 84.4785 55.627 84.4785 55.5195 84.4785C55.412 84.4785 55.412 84.4785 55.412 84.371C55.197 84.2635 55.0895 84.0485 55.5195 83.511Z" fill="#AEC736"/>
<path d="M53.4771 80.9311C54.2296 79.9636 55.197 80.1786 55.3045 80.8236C55.3045 80.931 55.3045 81.361 54.767 81.8985C54.1221 82.436 53.6921 82.221 53.6921 82.221C53.6921 82.221 53.5846 82.221 53.5846 82.1135H53.4771C53.3696 82.006 53.3696 81.8985 53.3696 81.8985C53.2621 81.2535 53.3696 81.0386 53.4771 80.9311Z" fill="#AEC736"/>
<path d="M7.79132 49.1124C7.79132 48.2524 8.2213 46.855 9.18877 47.8224C10.2637 48.8974 9.51125 50.8323 8.86628 50.8323C8.65129 50.8323 8.3288 50.5098 8.3288 50.5098C8.2213 50.5098 7.79132 49.8648 7.79132 49.1124Z" fill="#AEC736"/>
<path d="M50.0373 78.4587C50.2522 77.4912 51.4347 77.0612 51.9722 77.9212C52.5097 78.7812 51.4347 79.6411 50.6822 79.5336C50.5747 79.5336 50.3597 79.4261 50.2522 79.3186C50.2522 79.2112 49.9298 78.9962 50.0373 78.4587Z" fill="#AEC736"/>
<path d="M12.0912 53.1971C12.0912 52.1222 12.6287 51.3697 13.4886 52.1222C14.4561 52.9822 14.2411 54.7021 13.3811 54.8096C13.2736 54.8096 13.0586 54.8096 12.7362 54.4871C12.5212 54.3796 12.0912 53.9496 12.0912 53.1971Z" fill="#AEC736"/>
<path d="M45.6299 75.5562C45.7374 74.6962 46.8124 74.0513 47.5649 74.9112C48.2098 75.5562 47.4574 76.6312 46.7049 76.6312C46.4899 76.6312 46.2749 76.5237 46.0599 76.4162C45.9524 76.2012 45.6299 75.9862 45.6299 75.5562Z" fill="#AEC736"/>
<path d="M17.1435 57.3895C17.036 56.422 17.681 55.5621 18.5409 56.2071C19.1859 56.7445 19.1859 57.6045 19.1859 57.6045C19.1859 58.142 18.9709 58.357 18.9709 58.4645C18.9709 58.4645 18.6484 58.6795 18.4334 58.787C18.3259 58.787 18.0035 58.7869 17.7885 58.6795C17.5735 58.2495 17.251 58.0345 17.1435 57.3895Z" fill="#AEC736"/>
<path d="M40.4701 72.3312C40.4701 71.3638 41.5451 70.8263 42.2975 71.6863C42.62 72.0087 42.62 72.4387 42.5125 72.8687C42.19 73.5137 41.76 73.4062 41.5451 73.4062C41.3301 73.4062 41.1151 73.1912 41.0076 73.1912C40.7926 72.9762 40.4701 72.7612 40.4701 72.3312Z" fill="#AEC736"/>
<path d="M22.8408 61.2592C22.7333 60.1842 23.4857 59.7543 24.3457 60.3992C25.4207 61.2592 24.8832 62.4417 24.2382 62.5491C23.9157 62.5491 23.4857 62.3342 23.4857 62.3342C23.2708 62.2267 22.9483 61.9042 22.8408 61.2592Z" fill="#AEC736"/>
<path d="M34.6653 68.7841C34.5578 67.9241 35.5253 67.3866 36.3853 68.1391C37.1377 68.7841 36.9227 69.859 35.9553 69.9665C35.7403 69.9665 35.4178 69.859 35.3103 69.7515C35.0953 69.5365 34.6653 69.3215 34.6653 68.7841Z" fill="#AEC736"/>
<path d="M28.7531 65.1291C28.6456 64.3766 29.398 63.6242 30.258 64.3766C31.2255 65.1291 31.0105 66.3115 30.043 66.419C29.828 66.419 29.5055 66.3115 29.398 66.204C29.1831 65.9891 28.7531 65.6666 28.7531 65.1291Z" fill="#AEC736"/>
<path d="M47.8873 90.3905C48.9622 90.3905 49.8222 90.283 50.0372 90.1755L49.2847 90.283C48.7472 90.283 48.1023 90.3905 47.5648 90.3905C47.0273 90.3905 46.3823 90.3905 45.8448 90.3905C46.9198 90.498 47.4573 90.3905 47.8873 90.3905Z" fill="#AEC736"/>
<path d="M51.7572 90.0682C52.5096 89.9607 53.2621 89.7457 54.0146 89.6382C53.2621 89.8532 50.5747 90.2832 49.4998 90.2832H49.6072H49.7147C50.3597 90.1757 51.1122 90.1757 51.7572 90.0682Z" fill="#AEC736"/>
<path d="M55.412 89.2081C55.842 89.1006 56.1645 88.9931 56.3794 88.9931C57.2394 88.7782 57.3469 88.6707 57.4544 88.6707C57.2394 88.8856 54.6595 89.5306 53.3696 89.7456C53.4771 89.7456 53.4771 89.7456 53.6921 89.6381C54.122 89.5306 54.6595 89.4231 55.412 89.2081Z" fill="#AEC736"/>
<path d="M58.3143 88.0258C59.9268 87.3808 60.2493 87.2733 60.3568 87.3808C60.1418 87.7033 57.2394 88.6707 56.7019 88.7782C56.7019 88.7782 56.7019 88.7782 56.8094 88.6707C57.1319 88.4558 57.4544 88.3483 58.3143 88.0258Z" fill="#AEC736"/>
<path d="M5.96391 23.3133C6.2864 22.7758 6.50139 22.3459 6.82387 21.8084C6.93137 21.5934 7.14636 21.2709 7.25386 21.0559C6.93137 21.7009 6.50139 22.3459 6.1789 22.8833C5.85641 23.5283 5.53393 24.1733 5.10394 24.7108C5.42643 24.2808 5.64142 23.8508 5.96391 23.3133Z" fill="#AEC736"/>
<path d="M4.56658 26.538C4.67407 26.3231 5.31905 24.9256 5.64153 24.8181C5.85652 25.2481 4.56658 28.043 4.0291 28.473C4.0291 28.3655 4.0291 28.3655 4.0291 28.1505C3.9216 27.9355 4.0291 27.5055 4.56658 26.538Z" fill="#AEC736"/>
<path d="M60.4643 86.4132C61.1093 86.0907 62.1843 85.5532 62.3992 85.6607C61.9693 86.3057 59.4969 87.3806 59.1744 87.2731C59.3894 87.0582 59.6044 86.8432 60.4643 86.4132Z" fill="#AEC736"/>
<path d="M61.4317 84.4784C62.5066 83.726 63.3666 83.4035 63.2591 83.8335C63.2591 83.8335 63.1516 84.2634 62.0767 84.9084C61.8617 85.0159 60.6792 85.6609 60.5717 85.4459V85.3384C60.6792 85.2309 60.7867 85.0159 61.4317 84.4784Z" fill="#AEC736"/>
<path d="M4.02909 30.5154C4.02909 30.5154 4.78156 28.688 5.21154 28.688C5.74902 29.4405 4.24408 32.4503 3.9216 32.3428C3.8141 32.3428 3.8141 32.1279 3.7066 32.0204C3.7066 31.8054 3.7066 31.3754 4.02909 30.5154Z" fill="#AEC736"/>
<path d="M61.3243 82.3285C62.0768 81.576 63.1517 81.0385 63.1517 81.6835C63.1517 82.436 61.3243 83.7259 60.8943 83.4034L60.7868 83.296C60.7868 82.866 61.1093 82.5435 61.3243 82.3285Z" fill="#AEC736"/>
<path d="M4.88906 34.3852C5.31904 32.9878 5.96402 32.4503 6.2865 32.9878C6.2865 32.9878 6.60899 33.6327 6.17901 35.0302C5.85652 35.9976 5.31904 36.3201 5.21155 36.3201C5.10405 36.3201 5.10405 36.2126 4.99655 36.1051C4.78156 35.8901 4.56657 35.3527 4.88906 34.3852Z" fill="#AEC736"/>
<path d="M6.9314 38.5777C7.14639 37.6102 7.79136 36.4278 8.43634 37.1802C9.08131 38.0402 8.43634 40.4051 7.57637 40.2976C7.36138 40.2976 7.14639 39.9751 7.14639 39.9751C7.03889 39.7601 6.8239 39.3302 6.9314 38.5777Z" fill="#AEC736"/>
<path d="M60.1418 79.7486C60.7868 78.7811 61.8618 78.4586 62.0768 79.1036C62.0768 79.2111 62.1843 79.7486 61.4318 80.3936C61.3243 80.5011 60.5718 81.0385 60.1418 80.8236C60.1418 80.8236 60.0343 80.8236 60.0343 80.7161C59.8193 80.6086 59.6044 80.2861 60.1418 79.7486Z" fill="#AEC736"/>
<path d="M10.1563 42.555C10.2638 41.2651 11.1238 40.8351 11.7687 41.3725C12.5212 42.125 12.1987 44.1674 11.2313 44.2749C10.9088 44.2749 10.6938 44.1674 10.5863 43.9524C10.4788 43.845 10.1563 43.415 10.1563 42.555Z" fill="#AEC736"/>
<path d="M57.6694 76.8462C58.2069 75.7713 59.3893 75.5563 59.6043 76.3088C59.9268 77.1687 58.6369 78.2437 57.9919 78.0287C57.9919 78.0287 57.8844 78.0287 57.6694 77.8137C57.5619 77.7062 57.3469 77.4912 57.6694 76.8462Z" fill="#AEC736"/>
<path d="M54.0145 73.8362C54.337 72.7612 55.627 72.2237 56.0569 73.1912C56.3794 73.8362 55.627 75.1261 54.4445 74.8036C54.337 74.8036 54.2295 74.6962 54.2295 74.6962C54.122 74.5887 53.907 74.3737 54.0145 73.8362Z" fill="#AEC736"/>
<path d="M14.4562 46.9622C14.4562 45.8872 15.3161 44.9198 16.1761 45.7797C16.4986 46.1022 16.6061 46.8547 16.4986 47.2847C16.2836 48.0372 15.9611 48.3596 15.5311 48.3596C15.5311 48.3596 15.2086 48.3596 15.1012 48.1447C14.7787 47.8222 14.4562 47.6072 14.4562 46.9622Z" fill="#AEC736"/>
<path d="M19.6159 50.8322C19.7234 49.7572 20.7984 49.5423 21.4433 50.4022C22.0883 51.2622 21.5508 52.4446 20.7984 52.4446C20.6909 52.4446 20.4759 52.3371 20.2609 52.2296C19.9384 51.9072 19.6159 51.3697 19.6159 50.8322Z" fill="#AEC736"/>
<path d="M49.3923 70.3964C49.6072 69.429 50.6822 68.999 51.3272 69.8589C51.6497 70.2889 51.5422 70.7189 51.4347 70.9339C51.0047 71.5789 50.4672 71.5789 50.2522 71.5789C50.1447 71.5789 49.8222 71.4714 49.7147 71.3639C49.7147 71.2564 49.2848 70.9339 49.3923 70.3964Z" fill="#AEC736"/>
<path d="M25.4207 55.132C25.4207 54.0571 26.3881 53.8421 27.0331 54.4871C27.3556 54.8096 27.5706 55.2395 27.4631 55.777C27.4631 55.8845 27.3556 56.0995 26.9256 56.422C26.9256 56.422 26.8181 56.5295 26.4956 56.5295C26.2806 56.5295 26.1731 56.5295 25.9581 56.3145C25.9581 56.3145 25.9581 56.3145 25.8506 56.3145C25.7431 56.3145 25.7431 56.207 25.6356 56.0995C25.6356 55.992 25.5282 55.992 25.4207 55.992C25.5282 55.6695 25.4207 55.347 25.4207 55.132Z" fill="#AEC736"/>
<path d="M43.9099 66.9566C44.0174 66.0966 44.9849 65.4516 45.7373 66.3116C46.3823 67.0641 45.6298 67.924 44.8774 67.924C44.6624 67.924 44.3399 67.8166 44.2324 67.7091C44.2324 67.6016 43.9099 67.3866 43.9099 66.9566Z" fill="#AEC736"/>
<path d="M37.7827 63.0867C37.7827 62.2267 38.7502 61.5818 39.5026 62.4417C40.2551 63.1942 39.5026 64.1617 38.8577 64.0542C38.7502 64.0542 38.3202 63.9467 38.2127 63.8392C38.1052 63.8392 37.7827 63.6242 37.7827 63.0867Z" fill="#AEC736"/>
<path d="M31.6555 59.2168C31.6555 58.3569 32.5154 57.7119 33.2679 58.5719C34.0204 59.3243 33.2679 60.2918 32.7304 60.2918C32.6229 60.2918 32.1929 60.1843 32.0854 60.0768C31.9779 59.9693 31.6555 59.7543 31.6555 59.2168Z" fill="#AEC736"/>
<path d="M58.2069 88.5632C58.8519 88.3482 59.4969 88.1332 60.2494 87.9182C59.4969 88.2407 56.917 88.9932 55.842 89.2082C55.9495 89.2082 55.9495 89.2082 56.1645 89.1007C56.8095 88.9932 57.4545 88.7782 58.2069 88.5632Z" fill="#AEC736"/>
<path d="M61.6468 87.1658C63.4742 86.4133 63.4742 86.4133 63.5817 86.4133C63.5817 86.6283 60.1418 88.0258 59.6044 88.0258C59.6044 88.0258 59.6044 88.0258 59.7119 88.0258C59.8194 87.9183 59.9269 87.9183 60.1418 87.8108C60.1418 87.8108 61.6468 87.1658 61.6468 87.1658Z" fill="#AEC736"/>
<path d="M64.5492 85.3382C65.1941 85.0157 66.1616 84.4783 66.3766 84.5858C66.1616 85.0157 63.0442 86.5207 62.8292 86.5207C62.8292 86.5207 62.8292 86.4132 63.0442 86.3057C62.9367 86.3057 63.4742 85.9832 64.5492 85.3382Z" fill="#AEC736"/>
<path d="M9.9413 17.616C10.6938 16.6486 11.2313 16.1111 11.3387 16.1111C11.3387 16.3261 9.08134 19.336 8.75885 19.4435C8.75885 19.4435 8.75885 19.4435 8.86635 19.336C8.86635 19.336 8.86635 19.336 8.86635 19.2285C8.86635 19.0135 9.18883 18.476 9.9413 17.616Z" fill="#AEC736"/>
<path d="M66.0541 83.5109C66.9141 82.8659 68.204 82.1135 68.0966 82.5435C67.9891 83.1884 65.3017 84.6934 65.0867 84.5859L65.1942 84.3709C65.1942 84.1559 65.6241 83.8334 66.0541 83.5109Z" fill="#AEC736"/>
<path d="M8.22129 20.8409C8.22129 20.7334 9.40375 19.121 9.61874 19.4434C9.40375 20.5184 7.89881 22.5608 7.46882 22.6683L7.36133 22.5608C7.36133 22.5608 7.36133 22.5608 7.36133 22.4533C7.46882 22.3458 7.57632 21.8083 8.22129 20.8409Z" fill="#AEC736"/>
<path d="M66.8066 81.0384C67.8816 80.071 68.7415 79.641 68.7415 80.071C68.7415 80.8234 66.3766 82.4359 66.0541 82.2209C66.0541 82.2209 66.0541 82.2209 66.0541 82.1134C66.1616 81.8984 66.2691 81.5759 66.8066 81.0384Z" fill="#AEC736"/>
<path d="M7.68385 24.4958C8.00633 23.8508 8.9738 22.5608 9.18879 23.2058C9.51127 24.0658 7.89884 26.5382 7.36136 26.3232H7.25386V26.2157C7.14637 25.8932 7.14637 25.4632 7.68385 24.4958Z" fill="#AEC736"/>
<path d="M66.4841 78.3511C67.2365 77.3836 68.419 76.7387 68.5265 77.2761C68.634 78.1361 66.6991 79.7485 66.2691 79.426C66.2691 79.426 66.1616 79.3185 66.1616 79.2111C66.0541 79.2111 66.0541 78.8886 66.4841 78.3511Z" fill="#AEC736"/>
<path d="M8.32886 28.3656C8.65135 27.6131 9.61881 26.1082 10.0488 27.0756C10.2638 27.5056 10.1563 28.1506 9.72631 28.9031C9.51131 29.3331 8.86634 30.3005 8.43636 29.978L8.32886 29.8705L8.22137 29.763C8.11387 29.4406 8.11387 28.9031 8.32886 28.3656Z" fill="#AEC736"/>
<path d="M65.1941 74.9113C66.0541 73.8363 66.9141 73.9438 67.0216 74.5888C67.1291 75.5563 65.5166 76.8462 64.9791 76.4162L64.8716 76.3087H64.7642C64.5492 75.7713 65.1941 74.9113 65.1941 74.9113Z" fill="#AEC736"/>
<path d="M10.3713 32.2354C10.6938 31.2679 11.6612 30.0855 12.1987 31.1604C12.8437 32.3429 11.5537 34.1703 10.8013 33.9553C10.6938 33.9553 10.4788 33.6328 10.4788 33.6328C10.3713 33.6328 10.0488 32.9879 10.3713 32.2354Z" fill="#AEC736"/>
<path d="M13.5962 36.3203C13.8112 35.2453 14.6711 34.3853 15.4236 35.2453C15.7461 35.6753 15.8536 36.3203 15.5311 36.8577C15.1011 37.9327 14.2412 37.8252 14.2412 37.8252C14.0262 37.8252 13.9187 37.6102 13.8112 37.5027C13.7037 37.3952 13.3812 37.0727 13.5962 36.3203Z" fill="#AEC736"/>
<path d="M62.2918 72.1162C62.7218 71.0413 64.0118 70.5038 64.3342 71.2563C64.3342 71.2563 64.5492 72.0087 63.9043 72.7612C63.2593 73.5137 62.7218 73.2987 62.6143 73.1912C62.5068 73.1912 62.3993 73.0837 62.3993 73.0837C62.2918 72.8687 62.0768 72.6537 62.2918 72.1162Z" fill="#AEC736"/>
<path d="M58.5294 68.569C58.8519 67.6015 60.0344 66.9566 60.4644 67.8165C60.8943 68.569 60.0344 69.8589 59.0669 69.6439C58.9594 69.6439 58.6369 69.429 58.6369 69.429C58.5294 69.3215 58.3144 69.1065 58.5294 68.569Z" fill="#AEC736"/>
<path d="M17.7884 40.405C18.0034 39.4375 18.8634 38.685 19.6159 39.545C20.4758 40.62 19.4009 41.9099 18.6484 41.8024C18.5409 41.8024 18.2184 41.5874 18.1109 41.4799C18.1109 41.4799 17.6809 41.05 17.7884 40.405Z" fill="#AEC736"/>
<path d="M23.0558 44.5973C23.1633 43.4149 24.2383 43.1999 24.8833 43.9524C25.2058 44.3824 25.2058 44.8123 24.9908 45.2423C24.8833 45.5648 24.4533 45.7798 24.4533 45.7798C24.4533 45.7798 24.1308 45.8873 23.9158 45.7798C23.8083 45.7798 23.7008 45.7798 23.5933 45.5648C23.5933 45.5648 23.5933 45.5648 23.4858 45.5648C23.4858 45.5648 23.3783 45.4573 23.3783 45.3498C23.3783 45.2423 23.2708 45.2423 23.2708 45.1348C23.1633 45.2423 23.0558 44.9198 23.0558 44.5973Z" fill="#AEC736"/>
<path d="M53.692 64.9141C53.907 64.0541 54.982 63.4092 55.5195 64.2691C56.057 65.1291 55.197 66.0966 54.337 65.8816C54.337 65.8816 54.122 65.7741 53.907 65.6666C53.907 65.6666 53.5845 65.4516 53.692 64.9141Z" fill="#AEC736"/>
<path d="M28.9681 48.7897C28.9681 47.8222 30.043 47.6072 30.5805 48.2522C31.2255 49.0047 30.5805 49.9722 29.9355 49.8647C29.7206 49.8647 29.5056 49.7572 29.3981 49.6497C29.2906 49.6497 28.9681 49.3272 28.9681 48.7897Z" fill="#AEC736"/>
<path d="M48.1022 61.1518C48.1022 60.5069 48.9622 59.6469 49.8222 60.5069C50.1446 60.8293 50.0371 61.1518 49.9297 61.3668C49.8222 61.4743 49.6072 62.0118 49.0697 61.9043C49.0697 61.9043 48.7472 61.9043 48.6397 61.7968C48.2097 61.6893 47.9947 61.5818 48.1022 61.1518Z" fill="#AEC736"/>
<path d="M41.76 57.0669C41.8675 56.207 42.835 55.8845 43.2649 56.5295C43.5874 57.0669 43.3724 58.0344 42.62 57.8194C42.62 57.8194 42.2975 57.7119 42.19 57.7119C42.19 57.7119 41.6525 57.3894 41.76 57.0669Z" fill="#AEC736"/>
<path d="M35.3102 52.982C35.4177 52.2295 36.2777 51.7996 36.7077 52.4445C37.1377 52.982 36.9227 53.9495 36.1702 53.842C36.1702 53.842 35.8477 53.842 35.6327 53.7345C35.7402 53.7345 35.3102 53.412 35.3102 52.982Z" fill="#AEC736"/>
<path d="M64.2266 86.3059C64.8716 85.9834 65.3016 85.7684 65.4091 85.6609C65.0866 85.8759 64.6566 86.0909 64.2266 86.3059C63.6892 86.5209 63.0442 86.8433 62.6142 87.0583C62.8292 86.9508 63.4742 86.6284 64.2266 86.3059Z" fill="#AEC736"/>
<path d="M17.251 10.1987C17.5735 9.87623 18.0035 9.66124 18.326 9.33875C18.971 8.90877 19.0785 8.80127 19.0785 8.80127C19.0785 8.80127 15.8536 11.3812 15.6386 11.4887C15.7461 11.3812 15.7461 11.3812 15.9611 11.2737C16.0686 11.1662 16.1761 11.0587 16.3911 10.8437C16.7136 10.6287 16.9286 10.4137 17.251 10.1987Z" fill="#AEC736"/>
<path d="M67.559 84.3709C69.3864 83.2959 69.3864 83.2959 69.4939 83.2959C69.1714 83.7259 66.1616 85.3383 65.7316 85.4458C65.7316 85.4458 65.7316 85.4458 65.8391 85.3383H65.9466C66.484 85.0158 66.8065 84.8008 67.559 84.3709Z" fill="#AEC736"/>
<path d="M70.3538 82.0061C70.8913 81.6836 71.7513 81.0386 71.9663 80.9312C71.7513 81.4686 68.8489 83.4036 68.6339 83.2961L68.7414 83.0811C68.9564 83.0811 69.3864 82.6511 70.3538 82.0061Z" fill="#AEC736"/>
<path d="M14.5636 12.7787C14.9936 12.4562 15.961 11.4888 16.2835 11.4888C16.2835 11.8113 13.5961 14.3912 13.2736 14.3912C13.2736 14.3912 13.2736 14.2837 13.3811 14.0687C13.4886 13.9612 13.7036 13.5312 14.5636 12.7787Z" fill="#AEC736"/>
<path d="M71.7513 79.5335C72.1813 79.1035 73.3638 78.1361 73.5788 78.3511C73.6863 78.996 71.3214 80.931 70.7839 80.8235C70.7839 80.8235 70.7839 80.716 70.7839 80.6085C70.8914 80.501 71.1064 80.1785 71.7513 79.5335Z" fill="#AEC736"/>
<path d="M12.8437 15.7886C13.1662 15.4661 14.1337 14.4986 14.4562 14.3911C14.8862 14.8211 12.3063 17.401 11.9838 17.401C11.8763 17.401 11.8763 17.2935 11.8763 17.2935C11.8763 17.2935 11.8763 17.2935 11.8763 17.186C11.8763 16.8635 12.0913 16.541 12.8437 15.7886Z" fill="#AEC736"/>
<path d="M72.3963 76.6311C73.2563 75.6637 74.2238 75.0187 74.2238 75.5562C74.3313 76.3086 72.2888 78.351 71.7514 78.0286C71.7514 78.0286 71.6439 78.0286 71.6439 77.8136C71.7514 77.5986 71.7514 77.2761 72.3963 76.6311Z" fill="#AEC736"/>
<path d="M12.0912 19.1209C12.7362 18.1535 13.7036 17.2935 13.9186 17.831C14.0261 18.1535 13.7036 18.7985 13.0587 19.7659C13.0587 19.7659 12.0912 20.9484 11.6612 20.7334V20.6259C11.6612 20.6259 11.6612 20.6259 11.6612 20.5184C11.5537 20.3034 11.5537 19.8734 12.0912 19.1209Z" fill="#AEC736"/>
<path d="M71.8589 73.2987C72.6113 72.2238 73.5788 71.9013 73.6863 72.5463C73.9013 73.5137 72.0739 75.1262 71.5364 74.8037C71.5364 74.8037 71.4289 74.6962 71.4289 74.5887C71.3214 74.1587 71.6439 73.6212 71.8589 73.2987Z" fill="#AEC736"/>
<path d="M12.7362 22.5608C13.2737 21.5934 14.2411 20.6259 14.5636 21.3784C14.6711 21.5933 14.7786 22.1308 14.1336 23.0983C13.3811 24.2807 12.8437 24.1732 12.7362 24.1732C12.6287 24.1732 12.6287 24.0658 12.6287 24.0658C12.6287 24.0658 12.6287 24.0658 12.6287 23.9583C12.3062 23.5283 12.4137 23.0983 12.7362 22.5608Z" fill="#AEC736"/>
<path d="M14.7786 25.893C15.531 24.6031 16.391 24.8181 16.606 25.5705C16.9285 26.753 15.4235 28.2579 14.7786 27.8279L14.6711 27.7204C14.6711 27.7204 14.5636 27.7204 14.5636 27.6129C14.1336 26.968 14.7786 25.893 14.7786 25.893Z" fill="#AEC736"/>
<path d="M70.0315 70.074C70.5689 68.9991 71.7514 68.3541 71.9664 69.3215C72.2889 70.3965 70.6764 71.7939 70.139 71.4715L69.924 71.364C69.8165 71.149 69.6015 70.8265 70.0315 70.074Z" fill="#AEC736"/>
<path d="M67.0215 66.6339C67.4515 65.6665 68.6339 64.8065 69.0639 65.774C69.4939 66.8489 68.2039 68.2464 67.4515 67.8164C67.4515 67.8164 67.2365 67.7089 67.129 67.6014C67.0215 67.4939 66.8065 67.2789 67.0215 66.6339Z" fill="#AEC736"/>
<path d="M17.681 30.1931C18.111 28.9032 19.2935 28.3657 19.7235 29.2257C19.831 29.3332 20.0459 30.0856 19.401 30.9456C18.756 31.8056 18.2185 31.5906 18.111 31.4831C18.0035 31.3756 17.896 31.3756 17.7885 31.2681C17.681 31.1606 17.466 30.8381 17.681 30.1931Z" fill="#AEC736"/>
<path d="M21.8733 34.1704C22.0883 32.988 23.2707 32.343 23.8082 33.3105C24.2382 34.1704 23.4857 35.6754 22.5183 35.3529C22.4108 35.3529 22.0883 35.1379 22.0883 35.1379C21.9808 35.0304 21.6583 34.8154 21.8733 34.1704Z" fill="#AEC736"/>
<path d="M63.0442 62.7642C63.3666 61.6892 64.4416 61.1517 64.9791 62.1192C65.0866 62.2267 65.3016 62.7642 64.8716 63.4091C64.3341 64.1616 63.6891 63.9466 63.6891 63.9466C63.6891 63.9466 63.4741 63.8391 63.3666 63.7316C63.2591 63.6241 62.9367 63.4091 63.0442 62.7642Z" fill="#AEC736"/>
<path d="M58.2069 58.8943C58.4219 58.0344 59.3893 57.3894 59.9268 58.2494C60.4643 59.0018 59.6043 59.9693 59.0668 59.9693C58.9593 59.9693 58.6369 59.8618 58.5294 59.7543C58.3144 59.6468 58.0994 59.4318 58.2069 58.8943Z" fill="#AEC736"/>
<path d="M27.0331 38.2553C27.2481 37.0728 28.4306 36.8579 28.8606 37.6103C28.8606 37.6103 29.1831 38.1478 28.8606 38.9003C28.7531 39.1153 28.6456 39.2228 28.6456 39.2228C28.1081 39.4378 28.0006 39.4378 27.8931 39.4378C27.8931 39.4378 27.5706 39.3303 27.3556 39.2228C27.2481 39.0078 27.0331 38.7928 27.0331 38.2553Z" fill="#AEC736"/>
<path d="M33.0529 42.34C33.1604 41.4801 34.0203 41.2651 34.5578 41.8026C35.2028 42.4475 34.4503 43.3075 33.9128 43.3075C33.8053 43.3075 33.4828 43.2 33.3753 43.0925C33.1604 42.8775 33.0529 42.6625 33.0529 42.34Z" fill="#AEC736"/>
<path d="M52.5096 54.917C52.6171 54.0571 53.5846 53.7346 54.0146 54.3796C54.337 54.917 54.0146 55.8845 53.1546 55.6695H53.0471C52.9396 55.6695 52.8321 55.6695 52.8321 55.562C52.8321 55.562 52.4021 55.2395 52.5096 54.917Z" fill="#AEC736"/>
<path d="M39.61 46.5324C39.61 45.8874 40.47 45.6724 40.7925 46.2099C41.2225 46.7474 40.685 47.2849 40.255 47.2849C40.1475 47.2849 39.9325 47.1774 39.825 47.1774C39.61 46.9624 39.61 46.6399 39.61 46.5324Z" fill="#AEC736"/>
<path d="M46.2749 50.7248C46.2749 50.1873 47.0274 49.9723 47.4574 50.4023C47.7798 50.8323 47.3499 51.3698 47.0274 51.3698C47.0274 51.3698 46.7049 51.3698 46.5974 51.2623C46.2749 51.0473 46.2749 50.8323 46.2749 50.7248Z" fill="#AEC736"/>
<path d="M28.4306 3.74902C27.4631 4.17901 25.8507 4.82398 24.2382 5.68395C24.3457 5.68395 24.3457 5.57645 24.4532 5.57645C24.9907 5.36146 25.5282 5.03897 25.9582 4.82398C26.3881 4.60899 27.0331 4.2865 27.5706 4.07151C27.8931 3.96401 28.1081 3.85652 28.4306 3.74902Z" fill="#AEC736"/>
<path d="M22.8408 6.54388C23.7008 6.0064 24.6682 5.57642 24.7757 5.57642C24.6682 5.68391 21.3359 7.61884 21.0134 7.72633C21.0134 7.72633 21.1209 7.61884 21.2284 7.51134C21.6583 7.18885 22.1958 6.86637 22.8408 6.54388Z" fill="#AEC736"/>
<path d="M73.0413 80.8235C73.5788 80.3935 74.1162 79.856 74.7612 79.426C74.7612 79.426 74.7612 79.426 74.6537 79.5335L74.4387 79.7485C74.0087 80.071 73.4713 80.3935 73.0413 80.8235C72.6113 81.146 72.0738 81.5759 71.6438 81.8984L71.3214 82.1134C71.3214 82.1134 71.3214 82.1134 71.4289 82.0059C71.4289 82.0059 71.4289 82.0059 71.5363 81.8984C72.0738 81.5759 72.6113 81.146 73.0413 80.8235Z" fill="#AEC736"/>
<path d="M75.8362 77.8136C76.2662 77.3836 77.0186 76.6311 77.3411 76.6311C77.0186 77.2761 74.4387 79.641 74.3312 79.5335C74.3312 79.426 74.4387 79.3185 74.5462 79.3185C74.4387 79.211 74.8687 78.6735 75.8362 77.8136Z" fill="#AEC736"/>
<path d="M19.9383 8.80128C20.3683 8.47879 21.5508 7.72632 21.8733 7.72632C21.5508 8.1563 18.9709 10.0912 18.5409 10.0912C18.5409 10.0912 18.5409 9.98373 18.6484 9.87623C18.7559 9.66124 19.0784 9.33875 19.9383 8.80128Z" fill="#AEC736"/>
<path d="M77.0186 75.0189C77.4486 74.4814 78.7385 73.1914 78.7385 73.6214C78.846 74.1589 76.4811 76.8463 76.1586 76.5238V76.3088C76.2661 76.0938 76.6961 75.5563 77.0186 75.0189Z" fill="#AEC736"/>
<path d="M18.1109 11.2738C18.4334 10.9513 19.5084 10.0913 19.9383 10.0913C20.3683 10.5213 17.5734 12.6712 17.1434 12.7787C17.036 12.7787 17.0359 12.6712 17.0359 12.6712C17.0359 12.6712 17.0359 12.6712 17.0359 12.5637C17.1434 12.2412 17.3584 11.9187 18.1109 11.2738Z" fill="#AEC736"/>
<path d="M77.5562 71.6865C78.3086 70.6115 79.1686 69.859 79.2761 70.504C79.3836 71.364 77.5562 73.6214 77.0187 73.2989C77.0187 73.2989 76.9112 73.2989 76.9112 72.9764C76.9112 72.7614 77.0187 72.4389 77.5562 71.6865Z" fill="#AEC736"/>
<path d="M17.1434 14.1762C17.7884 13.4238 19.0784 12.4563 19.0784 13.1013C19.0784 13.8537 17.036 15.8962 16.4985 15.5737V15.4662C16.4985 15.4662 16.4985 15.4662 16.4985 15.3587C16.4985 15.3587 16.606 14.9287 17.1434 14.1762Z" fill="#AEC736"/>
<path d="M76.8037 68.0315C77.3412 67.0641 78.2011 66.4191 78.5236 67.1715C78.8461 68.139 77.2337 70.0739 76.6962 69.7514C76.6962 69.7514 76.5887 69.6439 76.5887 69.5365C76.2662 68.999 76.5887 68.4615 76.8037 68.0315Z" fill="#AEC736"/>
<path d="M17.5735 17.4011C18.2185 16.4336 19.4009 15.5737 19.5084 16.4336C19.7234 17.5086 17.7885 19.121 17.3585 18.691C17.3585 18.691 17.3585 18.691 17.251 18.5836C17.251 18.5836 17.251 18.5836 17.251 18.4761C17.1435 18.1536 17.3585 17.7236 17.5735 17.4011Z" fill="#AEC736"/>
<path d="M19.5084 20.3034C20.3683 19.1209 21.2283 19.2284 21.3358 19.9809C21.5508 21.0559 19.9383 22.4533 19.4009 22.0233L19.2934 21.9158H19.1859C18.8634 21.2709 19.5084 20.3034 19.5084 20.3034Z" fill="#AEC736"/>
<path d="M74.7613 64.4842C75.1912 63.4092 76.1587 62.7642 76.5887 63.5167C76.6962 63.7317 76.9112 64.2692 76.3737 65.1291C75.9437 65.8816 75.2987 65.9891 75.0837 65.9891C74.9762 65.9891 74.7613 65.7741 74.7613 65.7741C74.5463 65.6666 74.3313 65.3441 74.7613 64.4842Z" fill="#AEC736"/>
<path d="M71.5364 60.7217C71.8589 59.6467 72.9338 58.7868 73.4713 59.7542C74.0088 60.8292 72.8263 62.3341 72.0739 62.0117C72.0739 62.0117 71.8589 61.9042 71.7514 61.7967C71.6439 61.6892 71.4289 61.4742 71.5364 60.7217Z" fill="#AEC736"/>
<path d="M22.1958 24.2809C22.6258 23.0984 23.9158 22.5609 24.2383 23.4209C24.2383 23.5284 24.5607 24.2809 23.9158 25.0333C23.2708 25.7858 22.7333 25.5708 22.5183 25.5708C22.4108 25.4633 22.3033 25.4633 22.1958 25.3558C22.1958 25.2483 21.9808 24.9258 22.1958 24.2809Z" fill="#AEC736"/>
<path d="M26.1732 28.043C26.4956 26.968 27.6781 26.3231 28.2156 27.2905C28.6456 28.043 27.7856 29.5479 26.8181 29.2255C26.7106 29.2255 26.4956 29.0105 26.3881 29.0105C26.2807 29.0105 26.0657 28.688 26.1732 28.043Z" fill="#AEC736"/>
<path d="M67.4515 56.6369C67.6665 55.6694 68.634 55.0244 69.2789 55.8844C70.0314 56.8518 68.9564 58.0343 68.204 57.9268C68.0965 57.9268 67.774 57.7118 67.774 57.7118C67.6665 57.6043 67.344 57.2818 67.4515 56.6369Z" fill="#AEC736"/>
<path d="M31.3329 32.0205C31.5479 31.1605 32.6229 30.408 33.1603 31.3755C33.6978 32.2355 32.8379 33.2029 32.1929 33.0954C31.9779 33.0954 31.6554 32.8804 31.6554 32.8804C31.5479 32.7729 31.2254 32.558 31.3329 32.0205Z" fill="#AEC736"/>
<path d="M62.5067 52.6597C62.6142 51.7997 63.5816 51.1548 64.2266 52.0147C64.8716 52.8747 64.0116 53.8422 63.3666 53.7347C63.2592 53.7347 62.9367 53.6272 62.8292 53.5197C62.6142 53.4122 62.3992 53.1972 62.5067 52.6597Z" fill="#AEC736"/>
<path d="M37.2452 35.9977C37.3527 35.1378 38.3201 34.9228 38.8576 35.4603C39.5026 36.1052 38.6426 36.9652 38.1051 36.8577C37.9976 36.8577 37.6752 36.7502 37.5677 36.6427C37.3527 36.5352 37.2452 36.3202 37.2452 35.9977Z" fill="#AEC736"/>
<path d="M56.8095 48.5747C56.917 47.7148 57.7769 47.3923 58.3144 47.9298C58.7444 48.4672 58.4219 49.5422 57.6694 49.3272C57.6694 49.3272 57.3469 49.2197 57.2394 49.2197C57.132 49.2197 56.702 48.8972 56.8095 48.5747Z" fill="#AEC736"/>
<path d="M50.5747 44.2748C50.5747 43.6298 51.3272 43.4149 51.7572 43.9523C52.1871 44.4898 51.6497 45.0273 51.2197 45.0273C51.1122 45.0273 50.8972 44.9198 50.7897 44.9198C50.5747 44.7048 50.5747 44.3823 50.5747 44.2748Z" fill="#AEC736"/>
<path d="M43.9099 40.0827C44.0174 39.4377 44.7698 39.2227 45.1998 39.9752C45.5223 40.6202 45.0923 40.9427 44.5549 40.8352C44.5549 40.8352 44.4474 40.8352 44.2324 40.7277C44.0174 40.6202 43.8024 40.4052 43.9099 40.0827Z" fill="#AEC736"/>
<path d="M32.3004 2.35169C33.6979 2.0292 34.5578 1.81421 34.5578 1.81421L30.1505 3.10416C30.3655 2.99666 30.3655 2.99666 30.473 2.99666C30.688 2.88917 31.333 2.67417 32.3004 2.35169Z" fill="#AEC736"/>
<path d="M28.7531 3.74905C29.6131 3.42657 30.688 2.99658 30.7955 2.99658C30.7955 2.99658 27.0332 4.60902 26.8182 4.60902C26.9257 4.50152 27.0332 4.50152 27.0332 4.50152C27.3557 4.28653 27.8931 4.07154 28.7531 3.74905Z" fill="#AEC736"/>
<path d="M80.351 73.2989C80.6735 72.8689 81.426 71.9014 81.641 71.7939C81.641 72.0089 79.4911 74.8038 79.0611 75.1263C79.1686 75.0188 79.1686 74.9113 79.2761 74.8038C79.3836 74.4813 79.7061 74.1588 80.351 73.2989Z" fill="#AEC736"/>
<path d="M25.6357 5.4691C26.2807 5.14661 27.3557 4.60913 27.6782 4.60913C27.3557 4.93162 24.3458 6.54405 24.1308 6.54405C24.1308 6.54405 24.1308 6.54405 24.2383 6.43656C24.4533 6.22157 24.7758 6.00658 25.6357 5.4691Z" fill="#AEC736"/>
<path d="M81.7484 69.9664C81.9634 69.5365 83.0384 68.0315 83.1459 68.354C83.2534 68.784 81.3184 71.6864 80.996 71.5789C80.8885 71.5789 80.996 71.3639 80.996 71.2564C81.1035 71.1489 81.3184 70.5039 81.7484 69.9664Z" fill="#AEC736"/>
<path d="M23.5933 7.61884C24.4533 6.97386 25.7432 6.32889 25.6357 6.54388C25.6357 6.97386 22.8409 8.90879 22.5184 8.6938C22.5184 8.6938 22.5184 8.6938 22.6259 8.37131C22.9484 8.04882 23.2708 7.83383 23.5933 7.61884Z" fill="#AEC736"/>
<path d="M22.7333 9.87634C23.3782 9.23137 24.6682 8.4789 24.5607 9.12387C24.4532 9.87634 22.1958 11.5963 21.8733 11.1663V11.0588C21.9808 10.8438 22.0883 10.4138 22.7333 9.87634Z" fill="#AEC736"/>
<path d="M81.9634 66.3117C82.5009 65.1292 83.3609 64.3768 83.4684 64.9142C83.6834 65.5592 82.0709 68.2466 81.6409 68.0316C81.6409 68.0316 81.5334 68.0316 81.5334 67.8166C81.5334 67.6016 81.5334 67.1716 81.9634 66.3117Z" fill="#AEC736"/>
<path d="M80.996 62.5491C81.426 61.2592 82.2859 60.5067 82.6084 61.2592C82.7159 61.4742 82.8234 62.1192 82.2859 63.0866C81.641 64.3766 81.1035 64.1616 81.1035 64.1616L80.996 64.0541C80.996 64.0541 80.996 64.0541 80.8885 63.9466C80.6735 63.5166 80.781 63.0866 80.996 62.5491Z" fill="#AEC736"/>
<path d="M22.8407 12.6712C23.3782 12.0262 24.8832 10.9513 24.8832 11.8113C24.8832 12.3487 24.2382 12.9937 24.0232 13.2087C23.7007 13.5312 23.3782 13.7462 23.1632 13.7462C23.0557 13.8537 22.7332 13.8537 22.6257 13.7462C22.6257 13.7462 22.6257 13.7462 22.6257 13.6387C22.6257 13.6387 22.6257 13.6387 22.6257 13.5312C22.3033 13.4237 22.6258 12.9937 22.8407 12.6712Z" fill="#AEC736"/>
<path d="M79.0611 58.1419C79.7061 56.8519 80.4585 56.9594 80.6735 57.6044C80.8885 58.1419 80.6735 58.7868 80.4585 59.2168C79.921 60.1843 79.4911 60.1843 79.2761 60.1843C79.1686 60.1843 79.1686 60.0768 79.0611 59.9693C79.0611 59.9693 78.9536 59.9693 78.9536 59.8618C78.5236 59.2168 79.0611 58.1419 79.0611 58.1419Z" fill="#AEC736"/>
<path d="M24.2382 15.681C24.8832 14.7136 26.0656 13.9611 26.2806 15.0361C26.4956 16.0035 24.8832 17.2935 24.2382 16.971L24.0232 16.756C24.1307 16.756 23.9157 16.2185 24.2382 15.681Z" fill="#AEC736"/>
<path d="M26.8181 19.0135C27.2481 17.9385 28.538 17.2935 28.968 18.261C29.0755 18.3685 29.183 19.0135 28.4305 19.7659C27.7855 20.5184 27.1406 20.1959 27.1406 20.1959C27.1406 20.1959 27.0331 20.1959 27.0331 20.0884C27.0331 20.0884 27.0331 20.1959 26.8181 19.9809C26.8181 19.8734 26.6031 19.5509 26.8181 19.0135Z" fill="#AEC736"/>
<path d="M75.6211 54.5946C75.8361 53.6271 76.8036 52.5522 77.4486 53.5197C77.771 53.9496 77.6635 54.8096 77.556 55.1321C77.556 55.1321 77.0186 56.207 76.3736 56.0996C76.3736 56.0996 76.1586 55.9921 75.9436 55.8846C75.7286 55.6696 75.5136 55.3471 75.6211 54.5946Z" fill="#AEC736"/>
<path d="M30.688 22.3458C31.0105 21.3784 32.3005 20.7334 32.7305 21.5934C33.1605 22.3458 32.193 23.8508 31.2255 23.4208C31.118 23.4208 31.0105 23.3133 30.903 23.2058C30.7955 23.2058 30.5806 22.9908 30.688 22.3458Z" fill="#AEC736"/>
<path d="M71.3214 50.4023C71.4288 49.2198 72.5038 48.7898 73.1488 49.5423C73.9013 50.5098 73.0413 51.7997 72.2888 51.7997C72.0738 51.7997 71.8588 51.5847 71.7513 51.5847C71.6438 51.4772 71.3214 51.1548 71.3214 50.4023Z" fill="#AEC736"/>
<path d="M66.3766 46.2099C66.4841 45.1349 67.4515 44.8124 68.0965 45.5649C68.5265 45.9949 68.419 46.6398 68.3115 46.8548C68.3115 46.9623 68.204 47.2848 67.774 47.4998C67.559 47.6073 67.2366 47.6073 67.2366 47.6073C67.1291 47.6073 67.0216 47.6073 66.9141 47.3923C66.9141 47.3923 66.9141 47.3923 66.8066 47.3923C66.8066 47.3923 66.8066 47.3923 66.6991 47.1773C66.6991 47.0698 66.5916 47.0698 66.5916 46.9623C66.3766 46.9623 66.2691 46.6398 66.3766 46.2099Z" fill="#AEC736"/>
<path d="M35.6328 26.1082C35.8478 25.1407 37.0302 24.4957 37.6752 25.4632C37.9977 26.0007 37.6752 26.4307 37.4602 26.7531C37.1377 27.0756 36.6002 27.1831 36.3853 27.1831C36.3853 27.1831 36.0628 27.0756 35.9553 26.9681C35.8478 26.8606 35.5253 26.6456 35.6328 26.1082Z" fill="#AEC736"/>
<path d="M60.6794 42.0175C60.6794 41.05 61.7543 40.835 62.2918 41.48C62.9368 42.2325 62.2918 43.1999 61.6468 43.0924C61.4319 43.0924 61.2169 42.9849 61.1094 42.8775C60.8944 42.8775 60.6794 42.555 60.6794 42.0175Z" fill="#AEC736"/>
<path d="M41.4376 29.8705C41.5451 28.903 42.7275 28.6881 43.265 29.4405C43.5875 29.8705 43.48 30.3005 43.05 30.7305L42.9425 30.838C42.9425 30.838 42.835 30.838 42.7275 30.838C42.62 30.838 42.5125 30.9455 42.405 30.9455C42.2975 30.9455 42.19 30.838 41.975 30.838C41.975 30.838 41.8675 30.838 41.8675 30.7305C41.5451 30.5155 41.5451 30.5155 41.4376 30.408C41.4376 30.3005 41.4376 30.0855 41.4376 29.8705Z" fill="#AEC736"/>
<path d="M54.4446 37.9328C54.4446 37.0728 55.412 36.8578 55.9495 37.3953C56.5945 38.0403 55.9495 38.9003 55.3045 38.7928C55.197 38.7928 54.8746 38.6853 54.7671 38.5778C54.5521 38.4703 54.4446 38.2553 54.4446 37.9328Z" fill="#AEC736"/>
<path d="M47.8873 33.8477C47.8873 32.9878 48.8548 32.7728 49.4998 33.4177C50.1447 34.0627 49.3923 34.8152 48.8548 34.8152C48.7473 34.8152 48.4248 34.7077 48.3173 34.6002C47.9948 34.3852 47.8873 34.1702 47.8873 33.8477Z" fill="#AEC736"/>
<path d="M44.555 0.52417C44.6625 0.52417 44.8774 0.52417 45.0924 0.52417C42.9425 0.52417 41.3301 0.631666 40.2551 0.739161C40.3626 0.739161 40.3626 0.739161 40.4701 0.739161C40.5776 0.739161 40.5776 0.739161 40.6851 0.739161C40.7926 0.739161 40.7926 0.739161 40.9001 0.739161C41.1151 0.739161 41.3301 0.739161 41.5451 0.631666C42.0826 0.631666 42.835 0.52417 43.3725 0.52417C43.695 0.52417 44.125 0.52417 44.555 0.52417C44.555 0.52417 44.4475 0.52417 44.555 0.52417Z" fill="#AEC736"/>
<path d="M38.6426 0.954079C39.9326 0.739088 40.7925 0.739088 40.9 0.631592C39.3951 0.846583 37.8901 1.06157 36.2777 1.27657C36.3852 1.27657 36.3852 1.27657 36.4927 1.27657C36.8152 1.27657 37.5677 1.16907 38.6426 0.954079Z" fill="#AEC736"/>
<path d="M34.8803 1.81402C35.7403 1.59902 36.7077 1.38403 37.0302 1.38403L32.9454 2.45899C32.9454 2.45899 32.9454 2.45899 33.0529 2.45899C33.2679 2.244 33.9128 2.02901 34.8803 1.81402Z" fill="#AEC736"/>
<path d="M84.1134 68.0315C84.5434 67.279 84.7584 66.849 84.8659 66.634C84.6509 66.9565 84.4359 67.3865 84.2209 67.709C84.0059 68.139 83.576 68.784 83.361 69.2139L83.2535 69.4289C83.576 68.9989 83.8984 68.354 84.1134 68.0315Z" fill="#AEC736"/>
<path d="M31.7629 2.99654C32.7304 2.67405 33.6979 2.35156 33.9129 2.35156C33.6979 2.56655 30.258 3.8565 30.1505 3.74901C30.1505 3.74901 30.1505 3.74901 30.258 3.64151C30.473 3.53402 30.7955 3.31902 31.7629 2.99654Z" fill="#AEC736"/>
<path d="M29.5054 4.50156C30.1504 4.17907 31.3329 3.64159 31.4404 3.74909C31.3329 3.96408 28.6455 5.68401 28.323 5.36153C28.323 5.25403 28.323 5.25403 28.4305 5.25403C28.4305 5.14653 28.6455 4.93154 29.5054 4.50156Z" fill="#AEC736"/>
<path d="M85.5108 64.3766C85.5108 64.2691 86.3708 62.5491 86.5858 62.4417C86.6933 62.4417 86.4783 63.0866 86.0483 64.1616C85.4033 65.559 84.9733 66.0965 84.9733 66.0965C84.9733 66.0965 84.9733 66.0965 84.9733 65.989C84.9733 65.8815 85.0808 65.6665 85.0808 65.559C85.1883 65.2365 85.2958 64.8066 85.5108 64.3766Z" fill="#AEC736"/>
<path d="M85.7259 60.2917C85.9409 59.7543 86.5858 58.2493 86.8008 58.7868C86.9083 58.8943 86.9083 59.5393 86.4783 60.8292C86.3708 61.2592 85.7259 62.4416 85.5109 62.3342C85.4034 62.3342 85.4034 62.2267 85.4034 62.0117C85.4034 61.7967 85.4034 61.1517 85.7259 60.2917Z" fill="#AEC736"/>
<path d="M28.2156 6.43632C28.6456 6.11383 29.9356 5.36136 30.1505 5.57636C30.1505 6.22133 27.7856 7.61877 27.4631 7.40378C27.4631 7.40378 27.3557 7.29629 27.3557 7.18879C27.4631 7.0813 27.5706 6.8663 28.2156 6.43632Z" fill="#AEC736"/>
<path d="M84.6509 56.3146C84.8659 55.3471 85.5109 54.3796 85.8334 54.9171C86.3709 55.7771 85.5109 58.2495 84.8659 58.2495C84.6509 58.2495 84.5434 57.927 84.5434 57.927C84.4359 57.3895 84.5434 56.7446 84.6509 56.3146Z" fill="#AEC736"/>
<path d="M28.1081 8.58632C28.4306 8.26383 28.8605 7.94135 29.398 7.72636C29.5055 7.72636 30.043 7.51136 30.043 7.94135C29.9355 8.69382 28.2156 10.0913 27.6781 9.66128C27.6781 9.44629 27.5706 9.1238 28.1081 8.58632Z" fill="#AEC736"/>
<path d="M29.2905 11.1662C29.9355 10.1987 31.118 9.76875 31.2254 10.6287C31.3329 11.4887 29.828 12.7786 29.183 12.3487C29.183 12.3487 29.183 12.3487 29.0755 12.2412C28.968 12.0262 28.753 11.7037 29.2905 11.1662Z" fill="#AEC736"/>
<path d="M82.3934 52.2297C82.6084 51.1547 83.2533 50.2948 83.7908 51.0472C83.7908 51.0472 84.4358 52.1222 83.5758 53.6271C83.0383 54.2721 82.7159 53.9496 82.6084 53.7346C82.3934 53.6271 82.1784 53.1971 82.3934 52.2297Z" fill="#AEC736"/>
<path d="M78.9536 48.2523C79.0611 47.2848 79.8136 46.2098 80.4585 46.9623C81.3185 47.9298 80.566 49.6497 80.0286 49.7572C79.9211 49.7572 79.5986 49.8647 79.3836 49.5422C78.8461 48.8972 78.9536 48.4673 78.9536 48.2523Z" fill="#AEC736"/>
<path d="M31.5479 13.9612C32.1929 12.7787 33.2678 12.6712 33.5903 13.4237C33.8053 13.9612 33.4828 14.3911 33.0528 14.7136C32.4079 15.3586 31.8704 15.1436 31.7629 15.0361C31.7629 15.0361 31.7629 15.0361 31.6554 15.0361C31.5479 14.9286 31.2254 14.6061 31.5479 13.9612Z" fill="#AEC736"/>
<path d="M35.0953 17.1861C35.4178 16.2186 36.6003 15.5736 37.1377 16.5411C37.5677 17.401 36.6003 18.476 35.6328 18.261C35.6328 18.261 35.4178 18.1535 35.2028 18.046C35.2028 17.9385 34.8803 17.7235 35.0953 17.1861Z" fill="#AEC736"/>
<path d="M74.6538 44.0599C74.6538 42.9849 75.5138 42.0174 76.2662 42.8774C76.5887 43.1999 76.6962 43.9524 76.5887 44.3823C76.3737 45.2423 75.9438 45.4573 75.6213 45.4573C75.6213 45.4573 75.2988 45.4573 75.1913 45.2423C74.8688 45.0273 74.6538 44.8123 74.6538 44.0599Z" fill="#AEC736"/>
<path d="M69.494 39.5451C69.6015 38.4701 70.6764 38.2551 71.3214 39.1151C71.9664 39.9751 71.4289 41.1575 70.6764 41.1575C70.5689 41.1575 70.3539 41.05 70.1389 40.9425C69.8164 40.7275 69.494 40.1901 69.494 39.5451Z" fill="#AEC736"/>
<path d="M39.7176 20.4109C39.9326 19.2285 41.2225 19.121 41.76 19.981C42.2975 20.8409 41.2225 21.8084 40.47 21.5934C40.47 21.5934 40.255 21.4859 40.0401 21.3784C40.0401 21.3784 39.6101 21.0559 39.7176 20.4109Z" fill="#AEC736"/>
<path d="M63.9042 35.6753C63.9042 34.6003 64.8717 34.3853 65.5167 35.0303C65.8392 35.3528 66.0542 35.8902 65.9467 36.2127C65.9467 36.3202 65.8392 36.5352 65.5167 36.8577C65.5167 36.8577 65.4092 36.9652 65.0867 36.9652C64.8717 36.9652 64.6567 36.8577 64.5492 36.7502H64.4417C64.4417 36.7502 64.3342 36.6427 64.2267 36.5352C64.2267 36.4277 64.1192 36.4277 64.0117 36.4277C64.0117 36.2127 63.9042 35.9977 63.9042 35.6753Z" fill="#AEC736"/>
<path d="M45.3074 24.1732C45.4149 23.3133 46.4898 22.4533 47.3498 23.5283C47.6723 23.9582 47.5648 24.3882 47.4573 24.6032C47.3498 24.8182 47.3498 24.8182 47.1348 24.9257C47.0273 25.0332 46.7048 25.1407 46.4898 25.1407C46.2748 25.1407 45.9523 25.0332 45.8449 24.9257C45.6299 24.8182 45.3074 24.6032 45.3074 24.1732Z" fill="#AEC736"/>
<path d="M51.5422 27.8282C51.5422 26.9682 52.5096 26.3232 53.3696 27.1832C54.1221 28.0432 53.3696 28.9031 52.6171 28.9031C52.4021 28.9031 52.0797 28.6881 51.9722 28.6881C51.8647 28.5806 51.5422 28.3656 51.5422 27.8282Z" fill="#AEC736"/>
<path d="M57.7769 31.8055C57.7769 30.8381 58.8518 30.4081 59.4968 31.1606C59.6043 31.268 59.9268 31.8055 59.7118 32.2355C59.6043 32.558 59.4968 32.6655 59.4968 32.6655C59.4968 32.6655 59.1743 32.8805 58.8518 32.8805C58.7443 32.8805 58.4218 32.773 58.2068 32.6655C58.0993 32.558 57.7769 32.2355 57.7769 31.8055Z" fill="#AEC736"/>
<path d="M45.0924 0.52417C44.1249 0.52417 43.5874 0.52417 42.7275 0.631666H42.835C42.9425 0.631666 42.9425 0.631666 43.05 0.631666C43.6949 0.52417 44.3399 0.52417 45.0924 0.52417Z" fill="#AEC736"/>
<path d="M41.1151 0.739088C42.0826 0.631592 42.9425 0.631592 43.265 0.631592C41.6526 0.631592 41.6526 0.631592 41.1151 0.739088C40.4701 0.846583 39.8252 0.954079 39.1802 1.06157C39.2877 1.06157 39.2877 1.06157 39.3952 1.06157C39.6102 0.954079 40.1476 0.846583 41.1151 0.739088Z" fill="#AEC736"/>
<path d="M37.8902 1.27659C38.6426 1.0616 39.5026 0.954102 39.7176 0.954102C39.7176 0.954102 36.2777 1.81407 36.1702 1.81407C36.1702 1.81407 36.1702 1.81407 36.2777 1.70657C36.7077 1.59908 37.2452 1.38408 37.8902 1.27659Z" fill="#AEC736"/>
<path d="M88.1982 58.2493C88.6282 56.6369 88.7357 56.4219 88.7357 56.4219C88.7357 56.5294 88.7357 56.5294 88.7357 56.6369C88.6282 57.0669 88.5207 57.6043 88.4132 58.0343C88.3057 58.5718 88.0907 59.2168 87.8758 59.7542L87.7683 60.1842C87.7683 60.2917 87.7683 60.2917 87.6608 60.3992C87.6608 60.3992 87.6608 60.3992 87.6608 60.1842C87.8758 59.5393 87.9833 59.1093 88.1982 58.2493Z" fill="#AEC736"/>
<path d="M35.3103 2.24402C35.9552 2.02903 37.0302 1.70654 37.1377 1.70654C37.0302 1.81404 34.2353 2.889 34.0203 2.7815C34.3428 2.56651 34.9878 2.35152 35.3103 2.24402Z" fill="#AEC736"/>
<path d="M33.5904 3.64161C34.3429 3.21163 35.4179 2.78165 35.4179 2.99664C35.3104 3.42662 32.9455 4.60907 32.7305 4.39408V4.28659C32.838 4.17909 33.1605 3.8566 33.5904 3.64161Z" fill="#AEC736"/>
<path d="M88.3057 54.1645C88.3057 54.057 88.6282 52.6596 88.9507 52.4446C88.9507 52.4446 88.9507 52.4446 89.0582 52.4446C89.4882 53.0896 88.5207 56.3144 88.3057 56.2069C88.3057 56.2069 88.1982 56.2069 88.1982 56.0994C88.1982 56.0994 88.1982 56.0994 88.1982 55.9919C88.0907 55.6695 88.0907 55.2395 88.3057 54.1645Z" fill="#AEC736"/>
<path d="M87.2308 50.0797C87.3383 49.0048 87.7683 48.0373 88.0908 48.4673C88.3058 48.6823 88.4133 49.4348 88.3058 50.4022C88.3058 50.6172 88.0908 52.1222 87.5533 52.1222C87.4458 52.1222 87.3383 52.0147 87.2308 51.6922C87.2308 51.4772 87.0158 51.0472 87.2308 50.0797Z" fill="#AEC736"/>
<path d="M33.1603 5.36144C34.0203 4.71646 34.9878 4.39398 34.8803 4.82396C34.7728 5.36144 32.8379 6.65139 32.6229 6.2214C32.6229 6.00641 32.6229 5.79142 33.1603 5.36144Z" fill="#AEC736"/>
<path d="M84.8658 45.9949C84.8658 45.0275 85.2958 43.845 85.8332 44.275C86.5857 44.92 86.4782 47.6074 85.6183 47.7149C85.4033 47.7149 85.1883 47.4999 85.0808 47.3924C84.9733 47.1774 84.7583 46.8549 84.8658 45.9949Z" fill="#AEC736"/>
<path d="M33.9128 7.40394C34.4503 6.75896 35.6327 6.11399 35.7402 6.86646C35.8477 7.29644 35.2028 7.83392 34.9878 7.94141C34.2353 8.47889 33.9128 8.3714 33.8053 8.3714C33.8053 8.3714 33.8053 8.3714 33.6978 8.2639C33.5903 7.94141 33.6978 7.61893 33.9128 7.40394Z" fill="#AEC736"/>
<path d="M81.426 41.6951C81.426 40.9426 81.7484 39.5452 82.6084 40.2976C83.6834 41.2651 83.1459 43.415 82.3934 43.415C82.1784 43.415 81.8559 43.0925 81.8559 43.0925C81.8559 43.0925 81.426 42.4476 81.426 41.6951Z" fill="#AEC736"/>
<path d="M35.9553 9.66128C36.4928 8.69381 37.5677 8.47882 37.7827 9.23129C37.8902 9.66128 37.6752 10.0913 37.1378 10.5212C37.1378 10.5212 37.1378 10.5212 37.0303 10.5212C36.9228 10.6287 36.1703 10.8437 35.8478 10.5212C35.6328 10.3062 35.6328 10.1988 35.6328 10.1988C35.7403 10.1988 35.7403 9.98376 35.9553 9.66128Z" fill="#AEC736"/>
<path d="M39.0726 12.4562C39.2876 11.5962 40.5776 11.0587 41.0076 11.8112C41.4376 12.3487 40.9001 13.7461 39.7176 13.5311C39.6101 13.5311 39.5026 13.5311 39.3951 13.4236C39.3951 13.4236 39.3951 13.4236 39.2876 13.4236C38.8577 12.8862 38.9652 12.5637 39.0726 12.4562Z" fill="#AEC736"/>
<path d="M77.0187 37.5028C77.0187 36.4279 77.5562 35.6754 78.3086 36.4279C79.2761 37.2878 79.1686 39.0078 78.2011 39.1152C78.0936 39.1152 77.8786 39.1152 77.5562 38.7928C77.4487 38.6853 77.1262 38.2553 77.0187 37.5028Z" fill="#AEC736"/>
<path d="M43.3724 15.466C43.4799 14.4985 44.6624 13.8535 45.4149 14.9285C46.0598 15.681 45.3074 16.6484 44.4474 16.6484C44.2324 16.6484 43.9099 16.5409 43.8024 16.4334C43.6949 16.2184 43.3724 16.0034 43.3724 15.466Z" fill="#AEC736"/>
<path d="M71.9663 33.6329C71.8588 32.6654 72.5038 31.8055 73.3638 32.4505C74.0087 32.9879 74.4387 34.7079 73.3638 34.9229C73.2563 34.9229 72.9338 34.9229 72.7188 34.8154C72.2888 34.4929 72.0738 34.2779 71.9663 33.6329Z" fill="#AEC736"/>
<path d="M48.7473 18.6911C48.7473 17.7236 49.8222 17.1862 50.5747 18.0461C51.2197 18.6911 50.8972 19.8735 49.8222 19.8735C49.4997 19.8735 49.2847 19.766 49.1772 19.6586C49.0697 19.4436 48.7473 19.2286 48.7473 18.6911Z" fill="#AEC736"/>
<path d="M66.3765 29.5479C66.2691 28.6879 66.914 27.9355 67.8815 28.6879C68.849 29.4404 68.7415 30.8379 67.774 30.9454C67.559 30.9454 67.129 30.7304 67.0215 30.7304C66.914 30.5154 66.484 30.1929 66.3765 29.5479Z" fill="#AEC736"/>
<path d="M60.4643 25.7857C60.3568 24.9257 61.1093 24.1733 62.0767 24.9257C62.1842 25.0332 62.7217 25.4632 62.6142 26.2157C62.6142 26.4307 62.5067 26.6457 62.3992 26.7532C62.1842 26.9682 62.1842 26.9682 61.8617 26.9682C61.6467 26.9682 61.5392 26.9682 61.0018 26.7532C60.8943 26.6457 60.4643 26.3232 60.4643 25.7857Z" fill="#AEC736"/>
<path d="M54.552 22.1308C54.552 21.1634 55.5195 20.6259 56.2719 21.3784C56.3794 21.5934 56.8094 22.0233 56.5944 22.6683C56.3794 23.2058 55.9494 23.2058 55.7345 23.3133C55.627 23.3133 55.412 23.3133 54.982 23.0983C54.8745 22.8833 54.552 22.6683 54.552 22.1308Z" fill="#AEC736"/>
<path d="M43.48 0.52417C43.6949 0.52417 44.3399 0.52417 45.0924 0.52417C44.1249 0.52417 44.1249 0.52417 41.6525 0.739161C41.76 0.739161 41.76 0.739161 41.8675 0.739161C42.0825 0.631666 42.62 0.631666 43.48 0.52417Z" fill="#AEC736"/>
<path d="M40.5776 0.954249C41.4376 0.846754 42.0826 0.739258 42.1901 0.739258C42.1901 0.739258 39.2877 1.38423 39.1802 1.38423C39.1802 1.38423 39.1802 1.38423 39.2877 1.38423C39.3952 1.16924 39.7177 1.06175 40.5776 0.954249Z" fill="#AEC736"/>
<path d="M89.8106 47.7149C89.8106 46.8549 89.9181 45.9949 90.0256 45.8875C90.2406 46.1024 90.0256 49.6498 89.8106 49.8648V49.7573C89.8106 49.7573 89.8106 49.7573 89.8106 49.6498C89.7031 49.2198 89.7031 48.6823 89.8106 47.7149Z" fill="#AEC736"/>
<path d="M38.7502 1.70655C39.2877 1.49156 40.1476 1.27657 40.1476 1.38406C40.1476 1.49156 39.5027 1.70655 38.5352 2.13653C38.3202 2.24403 37.6752 2.45902 37.6752 2.35152C37.8902 2.02904 38.1052 1.92154 38.7502 1.70655Z" fill="#AEC736"/>
<path d="M88.6282 43.5225C88.6282 43.5225 88.6282 41.5876 88.9507 41.8026C89.1657 41.9101 89.3807 42.77 89.3807 43.63C89.3807 44.5975 89.2732 45.5649 89.0582 45.5649C88.9507 45.5649 88.8432 45.3499 88.8432 45.2424C88.7357 45.1349 88.6282 44.49 88.6282 43.5225Z" fill="#AEC736"/>
<path d="M37.6752 2.88916C37.9977 2.67417 38.9652 2.24419 39.1802 2.35169C39.2877 2.78167 37.5677 3.74913 37.2453 3.53414C37.2453 3.53414 37.1378 3.53414 37.1378 3.42664C37.2453 3.31915 37.2453 3.21165 37.6752 2.88916Z" fill="#AEC736"/>
<path d="M86.1557 39.4376C86.0482 38.2551 86.3707 37.5027 86.8007 37.8251C87.6607 38.3626 87.6607 41.1575 87.1232 41.265C87.0157 41.265 86.9082 41.265 86.8007 41.05C86.5857 40.9425 86.2632 40.405 86.1557 39.4376Z" fill="#AEC736"/>
<path d="M37.9976 4.39408C38.4276 3.8566 39.6101 3.21162 39.6101 3.96409C39.6101 4.07159 39.5026 4.50157 38.8576 4.93156C38.6426 5.03905 38.2126 5.25404 37.9976 5.14655C37.9976 5.14655 37.9976 5.14655 37.8901 5.14655C37.6751 4.82406 37.7826 4.71657 37.9976 4.39408Z" fill="#AEC736"/>
<path d="M39.61 6.22155C39.9325 5.57658 41.0075 5.0391 41.2225 5.79157C41.4375 6.43654 40.5775 7.404 39.7175 6.97402C39.61 6.97402 39.61 6.97402 39.61 6.97402C39.5025 6.86652 39.395 6.65153 39.61 6.22155Z" fill="#AEC736"/>
<path d="M82.716 35.3528C82.6085 34.4929 82.716 33.3104 83.5759 33.9554C83.7909 34.1704 84.7584 35.2453 84.3284 36.6428C84.3284 36.6428 84.2209 36.6428 84.2209 36.8578C84.2209 36.9653 84.0059 37.0728 84.0059 37.0728C84.0059 37.0728 83.7909 37.1803 83.5759 36.9653L83.4684 36.8578C83.2535 36.6428 82.931 36.3203 82.716 35.3528Z" fill="#AEC736"/>
<path d="M78.4161 31.3756C78.3087 30.7306 78.4161 29.3332 79.3836 30.0856C80.5661 30.9456 80.4586 32.773 79.9211 32.988C79.7061 33.0955 79.2761 32.773 79.1686 32.6655C79.1686 32.773 78.5236 32.1281 78.4161 31.3756Z" fill="#AEC736"/>
<path d="M42.4051 8.37147C42.6201 7.40401 43.8025 7.29651 44.2325 8.04898C44.555 8.58646 44.125 9.01645 44.0175 9.12394C44.0175 9.12394 44.0175 9.12394 43.91 9.12394C43.8025 9.23144 43.1575 9.44643 42.7276 9.12394C42.5126 8.90895 42.4051 8.80145 42.4051 8.80145C42.4051 8.90895 42.2976 8.58646 42.4051 8.37147Z" fill="#AEC736"/>
<path d="M73.3638 27.5056C73.1488 26.3232 73.7938 25.8932 74.5463 26.4307C74.6538 26.5382 75.2987 27.0757 75.5137 27.8281C75.7287 28.9031 75.1912 29.0106 75.0837 29.0106C74.7613 29.0106 74.4388 28.7956 74.3313 28.6881C73.7938 28.3656 73.4713 27.9356 73.3638 27.5056Z" fill="#AEC736"/>
<path d="M46.3823 10.9513C46.4898 9.87632 47.5648 9.76882 48.2098 10.5213C48.8547 11.2738 48.2098 12.1337 47.4573 12.1337C47.3498 12.1337 47.2423 12.1337 47.1348 12.0262C47.1348 12.0262 47.1348 12.0262 47.0273 12.0262C46.8123 11.8112 46.2748 11.4888 46.3823 10.9513Z" fill="#AEC736"/>
<path d="M67.9891 23.7433C67.7741 22.9908 68.0966 22.1309 68.9565 22.6684C69.924 23.2058 70.6765 24.8183 69.6015 25.1408C69.3865 25.2483 69.1715 25.1408 68.849 24.9258C68.634 24.8183 68.0966 24.3883 67.9891 23.7433Z" fill="#AEC736"/>
<path d="M51.2196 13.8536C51.1121 13.1011 51.7571 12.3487 52.8321 12.9936C53.692 13.6386 53.3696 14.7136 52.8321 14.8211C52.7246 14.8211 52.5096 14.9285 52.0796 14.7136C52.0796 14.7136 52.0796 14.7136 51.8646 14.6061C51.6496 14.6061 51.2196 14.3911 51.2196 13.8536Z" fill="#AEC736"/>
<path d="M62.1843 20.1959C61.9693 19.336 62.5068 18.5835 63.4742 19.2285C63.6892 19.336 64.2267 19.7659 64.3342 20.6259C64.3342 20.6259 64.3342 21.2709 63.7967 21.3784C63.5817 21.4859 63.1517 21.2709 62.8292 21.1634C62.8292 21.1634 62.3993 20.8409 62.1843 20.1959Z" fill="#AEC736"/>
<path d="M56.5944 16.971C56.4869 16.2186 57.0244 15.3586 58.0994 16.1111C58.9593 16.756 59.0668 17.9385 58.2069 18.046C57.8844 18.1535 57.5619 17.9385 57.2394 17.831C57.1319 17.7235 56.7019 17.5085 56.5944 16.971Z" fill="#AEC736"/>
<path d="M43.05 0.631666C43.48 0.52417 44.0175 0.52417 44.125 0.52417C43.265 0.631666 43.265 0.631666 42.9425 0.739161C41.975 0.954153 41.975 0.954153 41.975 0.954153C41.975 0.954153 41.975 0.954153 42.0825 0.954153C42.0825 0.846657 42.405 0.739161 43.05 0.631666Z" fill="#AEC736"/>
<path d="M89.9182 41.3725C89.8107 40.2976 89.8107 39.7601 89.7032 39.6526C89.7032 39.8676 89.7032 39.9751 89.8107 40.1901C89.9182 40.835 90.0257 41.8025 90.0257 42.0175C90.0257 42.4475 90.1332 42.985 90.1332 43.4149C90.0257 42.6625 89.9182 41.5875 89.9182 41.3725Z" fill="#AEC736"/>
<path d="M88.7356 37.3953C88.7356 37.3953 88.4131 35.2454 88.6281 35.4604C88.8431 35.6754 89.4881 38.1478 89.3806 39.3303C89.2731 39.4378 89.2731 39.4378 89.0581 39.0078C89.0581 38.6853 88.8431 37.9328 88.7356 37.3953Z" fill="#AEC736"/>
<path d="M41.6525 1.27659C41.975 1.16909 42.62 0.954102 42.7275 0.954102C42.7275 1.0616 42.19 1.27659 41.76 1.49158C41.1151 1.70657 41.0076 1.70657 41.0076 1.70657C41.0076 1.49158 41.1151 1.38408 41.6525 1.27659Z" fill="#AEC736"/>
<path d="M86.3708 33.0954C86.3708 33.0954 85.9409 31.2679 86.4783 31.4829C87.1233 31.8054 87.9833 34.8153 87.4458 35.1378C87.3383 35.2453 87.1233 35.0303 87.0158 34.8153C86.9083 34.6003 86.5858 34.0628 86.3708 33.0954Z" fill="#AEC736"/>
<path d="M41.4375 2.2441C41.76 2.02911 42.6199 1.49163 42.6199 1.92162C42.6199 2.3516 41.545 3.10407 41.2225 2.67409C41.115 2.56659 41.115 2.4591 41.4375 2.2441Z" fill="#AEC736"/>
<path d="M82.9309 29.4406C82.7159 28.6882 82.5009 27.3982 83.1459 27.7207C83.2534 27.8282 83.8984 28.2582 84.3284 29.5481C84.4359 29.7631 84.7584 31.0531 84.2209 31.1606C84.1134 31.1606 84.0059 31.0531 83.8984 31.0531C83.8984 31.0531 83.8984 31.0531 83.7909 30.9456C83.4684 30.5156 83.1459 30.0856 82.9309 29.4406Z" fill="#AEC736"/>
<path d="M42.5125 3.53404C42.62 3.21155 43.05 2.99656 43.265 2.88907C43.695 2.78157 43.91 3.10406 43.91 3.21155C44.125 3.74903 43.48 4.39401 42.9425 4.17902H42.835C42.835 4.17902 42.835 4.17902 42.7275 4.17902C42.405 3.96402 42.405 3.74903 42.5125 3.53404Z" fill="#AEC736"/>
<path d="M78.6311 25.4631C78.3086 24.7107 78.2011 23.7432 78.9535 23.9582C79.3835 24.1732 80.0285 24.8182 80.2435 25.3556C80.4585 25.8931 80.4585 26.3231 80.4585 26.4306C80.4585 26.8606 80.4585 26.8606 80.2435 26.9681C80.0285 27.0756 79.921 26.9681 79.706 26.8606C79.706 26.8606 79.706 26.8606 79.5985 26.7531C79.061 26.4306 78.846 26.0006 78.6311 25.4631Z" fill="#AEC736"/>
<path d="M44.7699 5.25394C44.8774 4.50147 45.7374 4.17898 46.2748 4.93145C46.5973 5.36144 46.3823 6.2214 45.5224 6.11391C45.4149 6.11391 45.4149 6.11391 45.3074 6.00641C45.3074 6.00641 45.3074 6.00641 45.1999 6.00641C44.8774 5.68392 44.7699 5.36144 44.7699 5.25394Z" fill="#AEC736"/>
<path d="M73.6864 21.9158C73.3639 21.1633 73.3639 20.1959 74.2238 20.5184C75.2988 20.9484 76.1588 22.8833 75.5138 23.3133C75.2988 23.5283 74.7613 23.0983 74.5463 23.0983C74.4388 22.8833 74.0088 22.5608 73.6864 21.9158Z" fill="#AEC736"/>
<path d="M48.3173 7.18898C48.2098 6.54401 48.7473 6.00653 49.6073 6.6515C50.2523 7.18898 50.3598 8.04895 49.6073 8.15644C49.3923 8.15644 49.2848 8.15644 49.1773 8.04895C49.1773 8.04895 49.1773 8.04895 49.0698 8.04895C48.7473 7.94145 48.4248 7.72646 48.3173 7.18898Z" fill="#AEC736"/>
<path d="M68.4189 18.3684C68.2039 17.8309 68.0965 16.756 69.0639 17.2935C70.4614 17.9384 70.8913 19.6584 70.1389 19.7659C69.9239 19.8734 69.3864 19.5509 69.2789 19.5509C69.3864 19.5509 68.6339 19.0134 68.4189 18.3684Z" fill="#AEC736"/>
<path d="M62.8292 14.8211C62.6142 13.8537 63.4742 13.9611 64.1192 14.3911C64.5491 14.7136 64.9791 15.1436 65.0866 15.5736C65.3016 16.3261 64.8716 16.4335 64.6566 16.4335C64.5491 16.4335 64.4416 16.4335 64.4416 16.4335C64.3341 16.4335 63.9042 16.2186 63.9042 16.2186C63.0442 15.6811 62.8292 14.8211 62.8292 14.8211Z" fill="#AEC736"/>
<path d="M57.4545 11.9187C57.347 10.9512 58.3144 11.1662 58.9594 11.7037C59.3894 12.0262 59.6044 12.3487 59.6044 12.7786C59.7119 13.4236 59.2819 13.4236 59.0669 13.4236C58.9594 13.4236 58.8519 13.4236 58.8519 13.4236C58.7444 13.4236 58.4219 13.2086 58.4219 13.2086C57.6695 12.6711 57.4545 11.9187 57.4545 11.9187Z" fill="#AEC736"/>
<path d="M52.6171 9.55371C52.5096 9.12373 52.7246 8.15627 53.9071 8.90874C54.982 9.55371 54.767 10.5212 54.2295 10.6287C53.9071 10.6287 53.5846 10.5212 53.4771 10.4137C53.3696 10.4137 52.7246 9.98369 52.6171 9.55371Z" fill="#AEC736"/>
<path d="M87.6608 31.0529C87.4458 30.3005 87.2308 29.6555 87.1233 29.333C87.1233 29.333 87.1233 29.4405 87.3383 29.763C87.5533 30.193 87.9833 31.3754 87.9833 31.4829C88.0907 31.9129 88.3057 32.4504 88.4132 32.8804C88.5207 33.0954 88.5207 33.0954 88.5207 33.3104C88.5207 33.3104 88.5207 33.2029 88.4132 33.0954C88.0907 32.3429 87.8758 31.9129 87.6608 31.0529Z" fill="#AEC736"/>
<path d="M44.5549 0.52417C44.7699 0.52417 44.9849 0.52417 45.1999 0.52417C44.8774 0.52417 44.6624 0.52417 44.2324 0.631666C44.0174 0.631666 43.9099 0.631666 43.9099 0.631666C44.1249 0.631666 44.3399 0.631666 44.5549 0.52417Z" fill="#AEC736"/>
<path d="M85.2958 27.2906C85.2958 27.2906 84.5433 25.3556 84.8658 25.5706C85.1883 25.7856 86.3707 27.9355 86.4782 29.118C86.3707 29.2255 86.3707 29.2255 86.0483 28.7955C85.9408 28.5805 85.5108 27.9355 85.2958 27.2906Z" fill="#AEC736"/>
<path d="M43.9099 0.846682C43.9099 0.846682 44.5549 0.524195 44.5549 0.739187C44.5549 0.739187 44.4474 0.954178 44.1249 1.16917C43.9099 1.27667 43.6949 1.27667 43.6949 1.16917C43.5874 1.16917 43.5874 1.06167 43.9099 0.846682Z" fill="#AEC736"/>
<path d="M81.9634 23.5283C81.8559 23.3133 81.3184 22.1308 81.5334 21.8083C81.8559 21.8083 82.5009 22.6683 82.9309 23.4208C83.4684 24.3882 83.5759 25.1407 83.3609 25.1407C83.2534 25.2482 82.8234 24.8182 82.8234 24.8182C82.6084 24.8182 82.2859 24.3882 81.9634 23.5283Z" fill="#AEC736"/>
<path d="M44.4474 1.70666C44.6624 1.27668 45.0924 1.16918 45.3074 1.59917C45.4149 1.81416 45.3074 1.92165 45.1999 2.13665C45.0924 2.24414 44.9849 2.24414 44.6624 2.13665H44.5549C44.4474 2.02915 44.3399 1.92165 44.4474 1.70666Z" fill="#AEC736"/>
<path d="M77.6637 19.981C77.2337 19.2285 77.0187 18.476 77.4487 18.5835C78.6311 18.906 79.9211 21.4859 79.3836 21.5934C79.1686 21.7009 78.8461 21.4859 78.6311 21.2709C78.4161 21.0559 78.0936 20.7335 77.6637 19.981Z" fill="#AEC736"/>
<path d="M46.2748 2.78163C46.1673 2.13665 46.8123 2.13665 47.2423 2.45914C47.6723 2.78163 47.6723 3.4266 47.2423 3.4266C47.2423 3.4266 47.0273 3.4266 46.9198 3.31911C46.5973 3.21161 46.2748 3.10412 46.2748 2.78163Z" fill="#AEC736"/>
<path d="M72.8263 16.6486C72.2888 15.6811 72.3963 15.3586 72.8263 15.3586C73.9013 15.5736 75.2987 17.7235 74.8687 18.046C74.7612 18.1535 74.5462 18.046 74.3313 17.9385C73.9013 17.831 73.2563 17.4011 72.8263 16.6486Z" fill="#AEC736"/>
<path d="M49.1772 4.28654C48.9622 3.64157 49.3922 3.53407 49.8222 3.74906C49.9297 3.74906 50.4671 3.96405 50.6821 4.28654C50.8971 4.82402 50.6821 4.93152 50.5746 5.03901C50.3596 5.14651 50.2521 5.03901 50.0371 4.93152C49.8222 4.82402 49.3922 4.60903 49.1772 4.28654Z" fill="#AEC736"/>
<path d="M67.6666 13.6387C67.4516 13.3163 67.0216 12.3488 67.6666 12.4563C67.9891 12.5638 68.7415 12.9938 69.279 13.5312C69.8165 14.1762 69.924 14.8212 69.709 14.9287C69.6015 14.9287 69.3865 15.0362 69.064 14.8212C69.064 14.8212 69.064 14.8212 68.849 14.7137C68.3115 14.3912 67.8816 13.9612 67.6666 13.6387Z" fill="#AEC736"/>
<path d="M62.5067 10.7363C62.1842 10.3064 61.9692 9.66138 62.5067 9.66138C63.2592 9.76887 64.7641 10.9513 64.5491 11.8113C64.2266 11.9188 64.1191 12.0263 63.7966 11.8113C63.7966 11.8113 63.7966 11.8113 63.5817 11.7038C63.0442 11.3813 62.7217 11.1663 62.5067 10.7363Z" fill="#AEC736"/>
<path d="M57.562 8.26375C57.2395 7.83377 57.132 7.1888 57.777 7.40379C58.6369 7.61878 59.7119 8.58624 59.4969 9.23122C59.1744 9.33871 59.0669 9.33871 58.7444 9.23122C58.7444 9.23122 58.7444 9.23122 58.6369 9.12372C57.992 8.90873 57.777 8.58624 57.562 8.26375Z" fill="#AEC736"/>
<path d="M53.0472 6.11406C52.9397 5.79157 52.7247 5.14659 53.4771 5.36159C54.7671 5.79157 55.0896 6.86653 54.7671 6.97402C54.6596 6.97402 54.4446 6.97402 54.2296 6.97402C54.2296 6.97402 54.2296 6.97402 54.0146 6.86653C53.4771 6.65154 53.1547 6.32905 53.0472 6.11406Z" fill="#AEC736"/>
<path d="M82.9308 21.5934C82.8233 21.4859 82.0709 20.0885 81.9634 19.981C82.3934 20.3034 84.2208 23.2058 84.1133 23.5283C84.0058 23.5283 84.0058 23.5283 84.0058 23.4208C84.0058 23.4208 84.0058 23.4208 83.8983 23.3133C83.6833 22.7758 83.4683 22.5609 82.9308 21.5934Z" fill="#AEC736"/>
<path d="M79.5985 18.2611C79.1685 17.6161 78.631 16.8637 78.7385 16.6487C79.061 16.5412 81.1034 19.0136 81.2109 19.8735C81.1034 19.8735 81.1034 19.8735 80.8884 19.766C80.8884 19.766 80.8884 19.766 80.4584 19.3361C80.2435 19.0136 79.921 18.5836 79.5985 18.2611Z" fill="#AEC736"/>
<path d="M46.4899 1.16917C46.4899 1.16917 46.2749 0.84668 46.3824 0.84668C46.4899 0.84668 46.9199 0.954175 47.1349 1.16917C47.5648 1.49165 47.3499 1.59915 47.3499 1.59915C47.3499 1.59915 47.2424 1.59915 46.9199 1.49165C46.8124 1.49165 46.5974 1.27666 46.4899 1.16917Z" fill="#AEC736"/>
<path d="M45.2 0.63176C45.2 0.63176 45.2 0.524265 45.2 0.63176C45.3074 0.524265 45.5224 0.63176 45.6299 0.63176C45.7374 0.739256 45.7374 0.846752 45.5224 0.846752H45.4149C45.3074 0.739256 45.2 0.739256 45.2 0.63176Z" fill="#AEC736"/>
<path d="M75.4062 14.9286C75.1912 14.7136 74.3313 13.6387 74.7613 13.6387C75.5137 13.6387 77.6636 16.2186 77.3412 16.5411C77.2337 16.6486 77.1262 16.5411 77.0187 16.4336C77.0187 16.4336 77.0187 16.4336 76.8037 16.3261C76.3737 16.0036 76.0512 15.6811 75.4062 14.9286Z" fill="#AEC736"/>
<path d="M70.7839 12.0261C70.5689 11.8111 70.0314 11.1661 70.0314 10.8436C70.3539 10.6286 71.5364 11.7036 71.5364 11.7036C72.3963 12.456 72.7188 12.9935 72.7188 13.316C72.7188 13.6385 72.1814 13.316 71.9664 13.2085C71.7514 12.9935 71.3214 12.671 70.7839 12.0261Z" fill="#AEC736"/>
<path d="M52.1871 3.31897C52.0796 3.21148 51.6496 2.78149 51.9721 2.78149C52.7246 2.78149 54.2295 3.85645 53.907 4.07144C53.7995 4.17894 53.477 4.07144 53.2621 3.96395C52.9396 3.96395 52.5096 3.74896 52.1871 3.31897Z" fill="#AEC736"/>
<path d="M48.8548 2.1366C48.7473 1.92161 48.5323 1.70662 48.6398 1.59912C48.9623 1.59912 50.3597 2.2441 50.1447 2.56658C50.0372 2.67408 49.6072 2.56658 49.4997 2.45909C49.3922 2.45909 49.1773 2.35159 48.8548 2.1366Z" fill="#AEC736"/>
<path d="M65.7315 9.3388C65.194 8.80132 64.9791 8.37134 65.3015 8.37134C66.1615 8.37134 68.3114 10.3063 67.8814 10.6287C67.8814 10.6287 67.6664 10.6287 67.4515 10.5213C67.4515 10.5213 67.4515 10.5213 67.2365 10.4138C66.8065 10.1988 66.3765 9.87628 65.7315 9.3388Z" fill="#AEC736"/>
<path d="M60.8943 7.0814C59.9268 6.22144 60.4643 6.22144 60.5718 6.22144C61.3243 6.32893 63.3667 7.72638 62.9367 8.15636C62.5067 8.04886 62.5067 8.04886 62.3992 8.04886C62.3992 8.04886 62.3992 8.04886 62.2917 8.04886C61.9692 7.83387 61.4318 7.51138 60.8943 7.0814Z" fill="#AEC736"/>
<path d="M56.2719 5.03908C55.9494 4.71659 55.627 4.39411 55.842 4.28661C56.4869 4.17911 58.4218 5.46906 58.2069 5.89905C58.2069 6.00654 57.8844 5.89905 57.6694 5.89905C57.6694 5.89905 57.6694 5.89905 57.5619 5.89905C57.2394 5.68405 56.7019 5.46906 56.2719 5.03908Z" fill="#AEC736"/>
<path d="M79.3835 16.4337C78.631 15.5737 78.2011 15.0362 78.0936 14.9287C78.5235 15.3587 78.846 15.7887 79.276 16.2187C79.5985 16.6486 80.0285 17.1861 80.351 17.5086L80.6735 17.9386C80.6735 17.8311 80.566 17.8311 80.566 17.7236C80.136 17.1861 79.5985 16.6486 79.3835 16.4337Z" fill="#AEC736"/>
<path d="M76.0512 13.3161C74.8687 12.1337 74.8687 12.0262 74.7612 11.9187C75.1912 12.0262 77.8786 14.7136 77.7711 14.9286C77.7711 14.9286 77.6636 14.9286 77.5561 14.8211C77.5561 14.8211 77.5561 14.8211 77.4486 14.7136C77.2336 14.4986 76.9111 14.0686 76.0512 13.3161Z" fill="#AEC736"/>
<path d="M71.9663 10.5213C71.8588 10.4138 70.7839 9.44636 70.7839 9.33887C71.3214 9.33887 74.1162 11.5963 74.0087 11.9188C74.0087 11.9188 73.7938 11.9188 73.6863 11.8113C73.6863 11.8113 73.6863 11.8113 73.5788 11.7038C73.1488 11.4888 72.8263 11.2738 71.9663 10.5213Z" fill="#AEC736"/>
<path d="M67.4515 8.049C66.5915 7.40403 66.484 7.18904 66.3765 7.08154C66.914 7.08154 69.3864 8.69398 69.6014 9.23146C69.4939 9.23146 69.3864 9.23146 69.0639 9.01647C68.7414 8.90897 68.3114 8.69398 67.4515 8.049Z" fill="#AEC736"/>
<path d="M47.3499 0.846754C47.1349 0.739258 47.0274 0.739258 46.9199 0.739258C46.8124 0.739258 46.8124 0.739258 46.8124 0.739258C47.0274 0.739258 48.5323 1.06175 48.6398 1.27674C48.6398 1.27674 48.5323 1.27674 48.2098 1.27674C47.9948 1.06175 47.9948 1.06175 47.3499 0.846754Z" fill="#AEC736"/>
<path d="M45.5224 0.52417C45.3074 0.52417 45.2 0.52417 45.2 0.52417C45.9524 0.52417 46.2749 0.631666 46.2749 0.631666C46.2749 0.631666 46.2749 0.631666 46.1674 0.631666C46.1674 0.631666 46.1674 0.631666 46.0599 0.631666C45.6299 0.52417 45.6299 0.52417 45.5224 0.52417Z" fill="#AEC736"/>
<path d="M62.7218 5.89897C62.1843 5.57648 61.8618 5.25399 61.8618 5.1465C62.3993 5.039 64.7642 6.43644 64.9792 6.97392C64.8717 6.97392 64.8717 6.97392 64.5492 6.86643C64.5492 6.86643 64.5492 6.86643 64.3342 6.75893C63.9042 6.65144 63.4743 6.32895 62.7218 5.89897Z" fill="#AEC736"/>
<path d="M58.0994 4.07149C57.5619 3.749 57.2395 3.53401 57.132 3.42651C57.7769 3.42651 60.3568 4.71646 60.1418 5.03895C60.1418 5.14645 59.4969 4.93145 59.4969 4.93145C58.9594 4.60897 58.5294 4.39398 58.0994 4.07149Z" fill="#AEC736"/>
<path d="M53.7995 2.56653C53.047 2.13655 53.047 2.13655 53.047 2.02905C53.692 2.02905 55.9494 2.99651 55.7344 3.21151L55.1969 3.10401C54.5519 2.99651 54.2295 2.88902 53.7995 2.56653Z" fill="#AEC736"/>
<path d="M50.2523 1.59917C49.4998 1.27669 49.4998 1.27669 49.3923 1.16919C49.6073 1.16919 51.6497 1.70667 51.7572 2.02916C51.6497 2.02916 51.5423 2.02916 51.4348 2.02916C51.4348 2.02916 51.4348 2.02916 51.0048 1.92166C50.7898 1.81416 50.5748 1.70667 50.2523 1.59917Z" fill="#AEC736"/>
<path d="M71.5364 9.12386C70.9989 8.69388 70.4614 8.37139 70.0314 7.94141C70.0314 7.94141 70.1389 7.94141 70.4614 8.26389C70.7839 8.47888 71.3214 8.90887 71.7514 9.12386C72.1813 9.44635 72.7188 9.76883 73.0413 10.0913C73.3638 10.3063 73.5788 10.5213 73.5788 10.5213C73.5788 10.5213 73.4713 10.5213 73.2563 10.3063C72.7188 10.0913 71.5364 9.12386 71.5364 9.12386Z" fill="#AEC736"/>
<path d="M67.5591 6.86631C66.1616 6.00634 66.1616 6.00634 66.0541 5.89884C66.2691 5.79135 69.494 7.72627 69.709 8.04876C69.709 8.04876 69.6015 8.04876 69.279 7.83377C68.9565 7.72627 68.5265 7.51128 67.5591 6.86631Z" fill="#AEC736"/>
<path d="M63.2592 4.9315C61.7543 4.17903 61.7543 4.07153 61.7543 4.07153C61.9693 4.07153 64.7642 5.25399 65.5166 5.89896C65.4091 5.89896 65.4091 5.89896 65.1941 5.79147C65.1941 5.79147 65.1941 5.79147 64.9791 5.68397C64.5492 5.57647 64.2267 5.46898 63.2592 4.9315Z" fill="#AEC736"/>
<path d="M58.6368 3.31901C58.2068 3.10402 57.3469 2.78153 57.2394 2.67403C57.3469 2.56654 60.2493 3.534 60.8942 4.07148C60.8942 4.07148 60.7867 4.07148 60.5718 4.07148C60.5718 4.07148 60.5717 4.07148 60.4643 4.07148C59.9268 3.85649 59.4968 3.64149 58.6368 3.31901Z" fill="#AEC736"/>
<path d="M54.3369 2.0291C53.047 1.59912 53.047 1.59912 53.047 1.59912C53.3695 1.59912 55.9494 2.2441 56.4869 2.67408C56.3794 2.67408 56.3794 2.67408 55.9494 2.56658C55.4119 2.35159 55.0894 2.2441 54.3369 2.0291Z" fill="#AEC736"/>
<path d="M50.3596 1.16917C49.9297 1.06167 49.4997 1.06167 49.1772 0.84668C49.3922 0.84668 51.7571 1.27666 52.2946 1.49165C52.1871 1.49165 52.1871 1.49165 51.8646 1.38416C51.3271 1.38416 50.8971 1.27666 50.3596 1.16917Z" fill="#AEC736"/>
<path d="M47.1348 0.631666C46.7048 0.631666 46.3823 0.52417 45.9523 0.52417C47.1348 0.52417 48.4247 0.739161 48.6397 0.846657C48.6397 0.846657 48.6397 0.846657 48.4247 0.846657C47.8873 0.739161 47.5648 0.739161 47.1348 0.631666Z" fill="#AEC736"/>
<path d="M62.2917 3.96414C61.6468 3.74915 61.0018 3.42666 60.3568 3.21167C60.8943 3.31917 63.6892 4.50162 64.5491 4.9316C64.4417 4.9316 64.4416 4.9316 64.2267 4.82411C64.1192 4.82411 62.6142 4.07164 62.2917 3.96414Z" fill="#AEC736"/>
<path d="M58.0994 2.56661C57.4544 2.35161 57.0244 2.24412 56.7019 2.13662C56.2719 2.02913 56.1644 2.02913 56.1644 1.92163C56.7019 2.02913 59.7118 2.88909 60.3568 3.31908C60.2493 3.31908 60.2493 3.31908 60.0343 3.21158C59.3893 2.99659 58.7443 2.7816 58.0994 2.56661Z" fill="#AEC736"/>
<path d="M53.692 1.49175C53.1546 1.38425 52.5096 1.27676 51.9721 1.06177C52.8321 1.16926 55.7345 1.81424 55.9495 2.02923C55.9495 2.02923 55.842 2.02923 55.412 1.92173C54.8745 1.81424 54.2295 1.59925 53.692 1.49175Z" fill="#AEC736"/>
<path d="M49.6073 0.846583C48.9623 0.739088 48.6398 0.739088 47.8873 0.631592C49.1773 0.739088 51.4347 1.06157 51.7572 1.16907C51.7572 1.16907 51.6497 1.16907 51.3272 1.06157C50.4672 0.954079 50.1447 0.846583 49.6073 0.846583Z" fill="#AEC736"/>
<path d="M45.9524 0.52417C45.6299 0.52417 45.3075 0.52417 45.0925 0.52417C46.8124 0.52417 47.7799 0.631666 47.7799 0.631666C47.7799 0.631666 47.7799 0.631666 47.3499 0.631666C47.1349 0.631666 46.5974 0.52417 45.9524 0.52417Z" fill="#AEC736"/>
<path d="M56.3795 1.92151C55.627 1.70652 54.982 1.59902 54.2296 1.38403C54.767 1.49153 55.412 1.59902 55.842 1.70652C56.3795 1.81402 57.0244 2.02901 57.5619 2.1365C57.8844 2.244 58.3144 2.35149 58.7444 2.45899C58.7444 2.45899 58.6369 2.45899 58.5294 2.45899H58.4219C58.2069 2.45899 57.3469 2.244 56.3795 1.92151Z" fill="#AEC736"/>
<path d="M52.1871 1.06175C51.4347 0.954249 51.4347 0.954249 50.0372 0.739258C51.4347 0.846754 53.7996 1.27674 54.552 1.49173C54.552 1.49173 54.5521 1.49173 54.2296 1.38423C53.9071 1.38423 53.1546 1.27674 52.1871 1.06175Z" fill="#AEC736"/>
<path d="M47.9948 0.631666C46.9198 0.52417 46.1673 0.52417 45.8448 0.52417C48.4247 0.52417 50.3597 0.846657 50.3597 0.846657C50.2522 0.846657 50.2522 0.846657 50.0372 0.846657C49.2847 0.739161 48.6397 0.631666 47.9948 0.631666Z" fill="#AEC736"/>
<path d="M45.8449 0.52417C45.6299 0.52417 45.4149 0.52417 45.2 0.52417C45.7374 0.52417 46.4899 0.52417 47.0274 0.52417H47.6724C47.9948 0.52417 48.2098 0.52417 48.5323 0.631666C48.4248 0.631666 48.3173 0.631666 48.2098 0.631666C47.3499 0.52417 46.5974 0.52417 45.8449 0.52417Z" fill="#AEC736"/>
<path d="M352.664 78.0332H344.339V73.6621H352.664C354.114 73.6621 355.285 73.4278 356.178 72.9591C357.072 72.4905 357.723 71.8462 358.133 71.0262C358.558 70.1915 358.77 69.2396 358.77 68.1706C358.77 67.1602 358.558 66.2157 358.133 65.337C357.723 64.4438 357.072 63.7262 356.178 63.1844C355.285 62.6426 354.114 62.3717 352.664 62.3717H346.03V89.9606H340.517V57.9785H352.664C355.139 57.9785 357.24 58.4178 358.968 59.2965C360.711 60.1604 362.036 61.3612 362.944 62.8988C363.852 64.4218 364.306 66.1644 364.306 68.1267C364.306 70.1915 363.852 71.9634 362.944 73.4424C362.036 74.9214 360.711 76.0563 358.968 76.8471C357.24 77.6379 355.139 78.0332 352.664 78.0332Z" fill="#AEC736"/>
<path d="M369.248 57.9785H380.56C382.991 57.9785 385.063 58.3446 386.777 59.0768C388.49 59.809 389.801 60.8926 390.708 62.3277C391.631 63.7482 392.092 65.5054 392.092 67.5995C392.092 69.1957 391.799 70.6015 391.214 71.8169C390.628 73.0324 389.801 74.0574 388.732 74.8921C387.663 75.7122 386.389 76.3492 384.909 76.8032L383.24 77.6159H373.07L373.026 73.2447H380.648C381.966 73.2447 383.064 73.0104 383.943 72.5418C384.822 72.0732 385.481 71.4362 385.92 70.6308C386.374 69.8107 386.601 68.8882 386.601 67.8631C386.601 66.7502 386.381 65.7837 385.942 64.9636C385.517 64.1289 384.858 63.4919 383.965 63.0526C383.072 62.5986 381.937 62.3717 380.56 62.3717H374.761V89.9606H369.248V57.9785ZM387.501 89.9606L379.989 75.595L385.766 75.5731L393.388 89.6751V89.9606H387.501Z" fill="#AEC736"/>
<path d="M403.471 57.9785V89.9606H397.957V57.9785H403.471Z" fill="#AEC736"/>
<path d="M412.564 57.9785H417.485L426.732 82.646L435.958 57.9785H440.878L428.665 89.9606H424.755L412.564 57.9785ZM410.324 57.9785H415.003L415.815 79.3292V89.9606H410.324V57.9785ZM438.44 57.9785H443.141V89.9606H437.627V79.3292L438.44 57.9785Z" fill="#AEC736"/>
<path d="M470.62 85.5894V89.9606H453.64V85.5894H470.62ZM455.2 57.9785V89.9606H449.686V57.9785H455.2ZM468.401 71.3337V75.639H453.64V71.3337H468.401ZM470.51 57.9785V62.3717H453.64V57.9785H470.51Z" fill="#AEC736"/>
</svg>
