<?xml version="1.0" encoding="utf-8"?>
<!-- Generator: Adobe Illustrator 22.1.0, SVG Export Plug-In . SVG Version: 6.00 Build 0)  -->
<svg version="1.1" id="Layer_1" xmlns="http://www.w3.org/2000/svg" xmlns:xlink="http://www.w3.org/1999/xlink" x="0px" y="0px"
	 viewBox="0 0 3363.8 500" style="enable-background:new 0 0 3363.8 500;" xml:space="preserve">
<g>
	<path d="M1147.7,293.8v199.1h-63.4V1.3h177.3c52.6,0,93.8,13.4,123.7,40.3c29.8,26.9,44.7,62.4,44.7,106.6
		c0,46.7-14.6,82.6-43.7,107.8c-29.2,25.2-70.9,37.8-125.3,37.8H1147.7z M1147.7,242h113.9c33.9,0,59.9-8,77.9-24
		c18-16,27.1-39.1,27.1-69.3c0-28.7-9-51.6-27.1-68.8c-18.1-17.2-42.8-26.1-74.3-26.8h-117.5V242z"/>
	<path d="M1667.1,493.4c-3.5-7-6.4-19.6-8.6-37.6c-28.4,29.5-62.3,44.2-101.7,44.2c-35.2,0-64.1-10-86.7-29.9
		c-22.6-19.9-33.8-45.2-33.8-75.8c0-37.2,14.1-66.1,42.4-86.7c28.3-20.6,68.1-30.9,119.4-30.9h59.4v-28.1c0-21.3-6.4-38.3-19.1-51
		c-12.8-12.7-31.6-19-56.5-19c-21.8,0-40.1,5.5-54.8,16.5c-14.8,11-22.1,24.3-22.1,40h-61.4c0-17.8,6.3-35.1,19-51.7
		c12.7-16.6,29.8-29.8,51.5-39.5c21.7-9.7,45.5-14.5,71.5-14.5c41.2,0,73.4,10.3,96.7,30.9c23.3,20.6,35.4,48.9,36.3,85v164.4
		c0,32.8,4.2,58.9,12.5,78.3v5.3H1667.1z M1565.8,446.8c19.1,0,37.3-5,54.5-14.9c17.2-9.9,29.6-22.8,37.3-38.6V320h-47.9
		c-74.8,0-112.3,21.9-112.3,65.7c0,19.1,6.4,34.1,19.2,44.9C1529.3,441.5,1545.7,446.8,1565.8,446.8z"/>
	<path d="M1947.9,190.9c-9.3-1.5-19.3-2.3-30.1-2.3c-40.1,0-67.2,17.1-81.5,51.2v253.6h-61.1V136.1h59.4l1,41.3
		c20-31.9,48.4-47.9,85.2-47.9c11.9,0,20.9,1.5,27.1,4.6V190.9z"/>
	<path d="M2102.4,49.6v86.5h66.7v47.2h-66.7v221.8c0,14.3,3,25.1,8.9,32.2c5.9,7.2,16.1,10.7,30.4,10.7c7,0,16.7-1.3,29.1-4v49.2
		c-16.1,4.4-31.7,6.6-46.9,6.6c-27.3,0-47.9-8.3-61.7-24.8c-13.9-16.5-20.8-40-20.8-70.3V183.3h-65v-47.2h65V49.6H2102.4z"/>
	<path d="M2280,136.1l2,44.9c27.3-34.3,63-51.5,107-51.5c75.5,0,113.6,42.6,114.2,127.8v236.1h-61.1V257
		c-0.2-25.8-6.1-44.8-17.7-57.1c-11.6-12.3-29.6-18.5-54-18.5c-19.8,0-37.2,5.3-52.2,15.8c-15,10.6-26.6,24.4-35,41.6v254.6h-61.1
		V136.1H2280z"/>
	<path d="M2709.3,500c-48.4,0-87.8-15.9-118.2-47.7s-45.6-74.3-45.6-127.6v-11.2c0-35.4,6.8-67.1,20.3-94.9
		c13.5-27.9,32.5-49.6,56.8-65.4s50.7-23.6,79.1-23.6c46.4,0,82.5,15.3,108.3,45.9c25.7,30.6,38.6,74.4,38.6,131.4v25.4h-242
		c0.9,35.2,11.2,63.7,30.9,85.4c19.7,21.7,44.7,32.5,75.1,32.5c21.6,0,39.8-4.4,54.8-13.2c15-8.8,28.1-20.5,39.3-35l37.3,29.1
		C2814.1,477,2769.2,500,2709.3,500z M2701.8,179.7c-24.7,0-45.4,9-62.1,26.9c-16.7,17.9-27.1,43.1-31,75.4h179v-4.6
		c-1.8-31-10.1-55.1-25.1-72.1S2727.3,179.7,2701.8,179.7z"/>
	<path d="M3070.3,190.9c-9.2-1.5-19.3-2.3-30.1-2.3c-40.1,0-67.2,17.1-81.5,51.2v253.6h-61.1V136.1h59.4l1,41.3
		c20-31.9,48.4-47.9,85.2-47.9c11.9,0,20.9,1.5,27.1,4.6V190.9z"/>
	<path d="M3302.7,398.6c0-16.5-6.2-29.3-18.7-38.5c-12.4-9.1-34.1-17-65-23.6c-30.9-6.6-55.5-14.5-73.6-23.8
		c-18.2-9.2-31.6-20.3-40.3-33c-8.7-12.8-13-27.9-13-45.6c0-29.3,12.4-54,37.1-74.3c24.8-20.3,56.4-30.4,94.9-30.4
		c40.5,0,73.4,10.5,98.6,31.4c25.2,20.9,37.8,47.7,37.8,80.2h-61.4c0-16.7-7.1-31.1-21.3-43.3c-14.2-12.1-32.1-18.2-53.7-18.2
		c-22.2,0-39.6,4.8-52.2,14.5c-12.5,9.7-18.8,22.3-18.8,38c0,14.7,5.8,25.9,17.5,33.3c11.7,7.5,32.7,14.6,63.2,21.5
		c30.5,6.8,55.2,15,74.1,24.4c18.9,9.5,33,20.9,42.1,34.2c9.1,13.3,13.7,29.5,13.7,48.7c0,31.9-12.8,57.5-38.3,76.8
		c-25.5,19.3-58.7,28.9-99.4,28.9c-28.6,0-53.9-5.1-75.9-15.2c-22-10.1-39.2-24.3-51.7-42.4c-12.4-18.2-18.7-37.8-18.7-58.9h61.1
		c1.1,20.5,9.3,36.7,24.6,48.7c15.3,12,35.5,18,60.6,18c23.1,0,41.7-4.7,55.6-14C3295.7,426.8,3302.7,414.3,3302.7,398.6z"/>
	<g>
		<polygon points="969.7,135.8 890.3,243 811,135.8 705.5,135.8 837.3,314.8 705.5,492.9 812.4,492.9 890.3,386.9 968.3,492.9 
			1075.2,492.9 943.4,314.8 1075.2,135.8 969.7,135.8 		"/>
		<path d="M649.4,0c-29.2,0-51.3,22.3-51.3,51.9c0,29.7,21.6,51.3,51.3,51.3c29.6,0,51.9-22.1,51.9-51.3C701.4,22.3,679,0,649.4,0"
			/>
		<polygon points="472.7,492.9 564.3,492.9 564.3,0 472.7,0 472.7,492.9 		"/>
		<polygon points="604,492.9 695.6,492.9 695.6,135.8 604,135.8 604,492.9 		"/>
		<path d="M179.2,0.1L0,492.9h98.1l215.1-142.2l50.6,142.2h100.7L285.3,0.1H179.2L179.2,0.1z M232.2,123.3l80.9,227.4H149.6
			L232.2,123.3L232.2,123.3z"/>
	</g>
</g>
</svg>
